<?xml version="1.0" encoding="utf-8"?>
<!-- Generator: Adobe Illustrator 18.1.1, SVG Export Plug-In . SVG Version: 6.00 Build 0)  -->
<svg version="1.1" id="Layer_2" xmlns="http://www.w3.org/2000/svg" xmlns:xlink="http://www.w3.org/1999/xlink" x="0px" y="0px"
	 viewBox="0 0 612 792" enable-background="new 0 0 612 792" xml:space="preserve">
<path fill="#0C2A4A" d="M506.2,356.6c0-0.1,0-0.2,0-0.3l0,0c0,0,0-0.1-0.1-0.1v-0.1l0,0c0,0,0-0.1-0.1-0.1l0,0l0,0l0,0
	c0,0,0,0,0-0.1c0,0,0,0-0.1-0.1c0,0,0,0-0.1-0.1l-0.1-0.1l-0.1-0.1l-0.1-0.1c0,0-0.1,0-0.1-0.1c-0.1-0.1-0.2-0.1-0.4-0.2l0,0l0,0
	c-0.2-0.1-0.3-0.1-0.4-0.1c0,0,0,0-0.1,0l0,0c-0.2,0-0.4,0-0.5,0l0,0c0,0,0,0-0.1,0c-0.2,0-0.4,0.1-0.5,0.1c0,0,0,0-0.1,0h-0.1h-0.1
	c-0.2,0.1-0.4,0.1-0.6,0.2h-0.1c-1.8,0.7-3.6,1.4-5.3,2.1c0,0-0.1,0-0.1,0.1c-0.1,0-0.1,0.1-0.2,0.1c-0.7,0.3-1.4,0.6-2.1,0.9
	c-0.2,0.1-0.3,0.1-0.4,0.2c-0.2,0.1-0.4,0.2-0.5,0.3c-0.4,0.2-0.9,0.4-1.3,0.5c-0.2,0.1-0.4,0.2-0.5,0.3c-0.5,0.3-1.1,0.5-1.7,0.8
	c-0.1,0-0.2,0.1-0.3,0.1c-0.1,0-0.2,0.1-0.3,0.1c-0.5,0.3-1.1,0.5-1.6,0.8c-0.1,0-0.2,0.1-0.3,0.1c-0.1,0-0.1,0.1-0.2,0.1
	c-0.4,0.2-0.8,0.4-1.1,0.5c-0.2,0.1-0.4,0.2-0.5,0.3c0,0,0,0-0.1,0s-0.1,0.1-0.2,0.1c-0.3,0.2-0.5,0.3-0.8,0.4
	c-0.4,0.2-0.7,0.4-1.1,0.5c-0.8,0.4-1.6,1-2.4,1.5c-3.1,2.2-5.7,5.3-7.8,9.1c-0.4,0.7-0.8,1.4-1.1,2.2c0,0,0,0,0,0.1
	c-0.4,1-1,1.8-1.4,2.8c0,0,0,0,0,0.1l-0.5,1.1c-1.7,3.3-3.4,6.5-5.3,9.7c-0.7,1.2-1.5,2.5-2.3,3.8c-4.5,7.2-9.6,14.1-15,20.4
	c-0.6,0.7-1.1,1.4-1.8,2c-2.6,2.9-5.3,5.7-8.1,8.4l0,0c0.4,0.4,0.8,0.8,1.3,1.1l0,0c0.8,0.4,1.8,0.7,2.7,0.6c0.3,0,0.6,0,0.9-0.1
	c0.1,0,0.2,0,0.3-0.1c0.1,0,0.2,0,0.3,0c0.1,0,0.3,0,0.4-0.1c0.1,0,0.2,0,0.3-0.1c0.1,0,0.1,0,0.2-0.1c0.1,0,0.2-0.1,0.3-0.1
	c0.1,0,0.2-0.1,0.4-0.1c0.1,0,0.2-0.1,0.3-0.1c0.1,0,0.1-0.1,0.2-0.1s0.2-0.1,0.2-0.1c0.1,0,0.2-0.1,0.3-0.1
	c0.2-0.1,0.4-0.2,0.4-0.3c0.1-0.1,0.2-0.1,0.3-0.2c0.1,0,0.1-0.1,0.2-0.1c0.2-0.1,0.3-0.2,0.4-0.3c0.2-0.1,0.3-0.2,0.4-0.3l0.1-0.1
	c0.2-0.1,0.3-0.2,0.4-0.3c0.2-0.1,0.4-0.3,0.5-0.4c0.1-0.1,0.3-0.2,0.4-0.4c0.1-0.1,0.2-0.1,0.3-0.2c0.1-0.1,0.2-0.2,0.4-0.3
	c0.4-0.3,0.6-0.6,1-1c0.4-0.4,1-1,1.4-1.5c0.4-0.4,0.8-0.8,1.1-1.2c0.1-0.1,0.2-0.2,0.3-0.3l0.1-0.1c0.4-0.4,0.8-0.9,1.1-1.3
	c0.4-0.4,0.8-0.9,1.2-1.3c0.8-1,1.6-1.8,2.5-2.9l0,0c0.2-0.2,0.3-0.4,0.4-0.5c0.4-0.5,0.9-1.1,1.3-1.7c0.1-0.1,0.1-0.2,0.2-0.2
	c0,0,0-0.1,0.1-0.1c0.6-0.8,1.2-1.6,1.9-2.4c0.7-0.9,1.4-1.8,2.1-2.6c2-2.6,3.8-5.1,5.4-7.4c0.2-0.3,0.3-0.4,0.4-0.7
	c0.2-0.3,0.4-0.5,0.5-0.8c0.2-0.3,0.4-0.5,0.5-0.7c0.2-0.3,0.4-0.5,0.5-0.8c0.2-0.3,0.4-0.4,0.4-0.7c0.2-0.3,0.3-0.4,0.4-0.7
	c0.1-0.1,0.1-0.2,0.2-0.3c0.1-0.1,0.2-0.3,0.3-0.4c0.1-0.1,0.2-0.3,0.2-0.4c0.1-0.1,0.2-0.3,0.2-0.4c0.1-0.2,0.2-0.4,0.4-0.5
	l0.1-0.1c0.2-0.3,0.3-0.4,0.4-0.7c0.1-0.1,0.1-0.2,0.2-0.3c0.1-0.1,0.1-0.2,0.2-0.3c0.1-0.3,0.3-0.4,0.4-0.7
	c0.1-0.2,0.2-0.4,0.3-0.5c0.2-0.3,0.3-0.5,0.4-0.8c0,0,0-0.1,0.1-0.1c0.3-0.4,0.4-0.9,0.6-1.3c0,0,0,0,0-0.1l0.8-1.7l0.1-0.2
	l0.3-0.7l0.1,0.9l0.3,1.9c0.4,3.7,0.7,7.1,0.9,10.2c0,0.4,0.1,1,0.1,1.4v0.1c0,0.2,0,0.3,0,0.4c0,0.3,0,0.5,0,0.8v0.1l0,0l0,0
	c0,0.2,0,0.4,0,0.5c0,0.3,0,0.5,0,0.8l0,0c0,1.2,0,2.4-0.1,3.5c0,0.3,0,0.5,0,0.8c-0.1,0.7-0.1,1.3-0.2,1.9
	c-0.1,0.6-0.2,1.2-0.3,1.8c-0.4,2.7-1.2,5-2.2,6.9c-0.2,0.3-0.3,0.5-0.4,0.8c-0.4,0.7-0.9,1.3-1.4,1.8c-0.2,0.2-0.4,0.4-0.5,0.5
	c-1.3,1.2-2.8,2-4.7,2.5c-0.1,0-0.2,0.1-0.4,0.1H469h-0.1h-0.2c-0.4,0.1-0.6,0.1-1,0.2c-0.1,0-0.2,0-0.3,0c-0.1,0-0.1,0-0.2,0h-0.1
	c-0.4,0.1-0.8,0.1-1.1,0.1c0,0,0,0-0.1,0l0,0l0,0l0,0l0,0l0,0c-0.3,0-0.5,0-0.9,0c-0.2,0-0.3,0-0.4,0c-0.2,0-0.4,0-0.6-0.1
	c-0.2,0-0.3,0-0.4,0c-0.3,0-0.4-0.1-0.7-0.1c-0.1,0-0.3,0-0.4-0.1c-0.4-0.1-0.7-0.2-1.1-0.3c-0.1,0-0.2-0.1-0.3-0.1
	c-0.3-0.1-0.5-0.2-0.8-0.3c-0.7-0.3-1.4-0.5-2-0.8c-0.1-0.1-0.2-0.1-0.3-0.2c0,0-0.1,0.1-0.2,0.2c-0.1,0.1-0.1,0.2-0.2,0.3
	c-0.1,0.1-0.2,0.3-0.2,0.4c-0.1,0.4-0.3,0.8-0.4,1.3c-0.1,0.3-0.1,0.5-0.2,0.8c0,0,0,0,0,0.1c-0.1,0.6-0.1,1.2-0.1,1.8
	c0,0.8,0.1,1.5,0.3,2.2c0.1,0.4,0.2,0.7,0.4,1c0.2,0.3,0.3,0.6,0.5,0.8c0.2,0.2,0.4,0.4,0.5,0.5c0.6,0.6,1.3,1.1,2.1,1.3
	c0.8,0.3,1.8,0.4,2.8,0.4l0,0c0.6,0,1.2-0.1,1.8-0.1c0.2,0,0.4,0,0.5-0.1l0,0l0,0h0.1h0.2h0.1c0.1,0,0.1,0,0.2,0l0,0h0.1h0.1l0,0
	c0.2,0,0.3,0,0.4-0.1c1.8-0.4,3.6-0.8,5.4-1.3c0.6-0.2,1.1-0.4,1.8-0.5c1-0.4,2-0.7,3-1.1c1.1-0.4,2.2-1,3.3-1.5
	c0.4-0.2,0.9-0.4,1.2-0.6c0.6-0.4,1.2-0.7,1.8-1.1c1.8-1.1,3.7-2.2,5.5-3.5l0,0c0.9-0.6,1.7-1.2,2.5-1.8c1.5-1.1,2.9-2.4,4.1-3.6
	c0.9-0.8,1.6-1.6,2.4-2.5c1.8-2,3.3-4,4.4-6.2c0,0,0,0,0-0.1l0,0c1.1-2.1,1.9-4.3,2.4-6.5c0.1-0.4,0.2-0.9,0.2-1.3
	c0.1-0.7,0.2-1.4,0.2-2c0.1-3-0.4-7.1-1.5-12.2c-0.2-1-0.4-1.8-0.6-2.9c-0.4-1.4-0.6-2.8-0.9-4c-0.9-4.4-1.4-7.5-1.4-9.3
	c0-0.4,0-0.8,0.1-1.2c0-0.1,0-0.3,0-0.4c0-0.4,0.1-0.6,0.1-1c0.2-1.3,0.6-2.6,1.1-4c0.4-0.8,0.7-1.6,1.1-2.3l0.1-0.1
	c0.3-0.4,0.5-1,0.9-1.4c0.5-0.8,1.1-1.5,1.7-2.2c0.1-0.2,0.2-0.3,0.3-0.4l0,0v-0.1c0,0,0-0.1,0.1-0.1l0,0l0,0l0,0l0,0
	c0-0.1,0-0.2,0.1-0.2C506.2,356.8,506.2,356.7,506.2,356.6L506.2,356.6L506.2,356.6z"/>
<path fill="#0C2A4A" d="M266.7,317.7c-0.8,0.3-1.7,0.6-2.5,1c-1.9,0.8-3.8,1.8-5.6,2.8c-0.6,0.4-1.2,0.7-1.8,1.1s-1.2,0.8-1.8,1.2
	c-0.4,0.3-0.8,0.5-1.2,0.9c0,0-0.1,0-0.1,0.1c-0.4,0.3-0.7,0.5-1.1,0.9c-0.3,0.2-0.4,0.4-0.7,0.6c-0.8,0.6-1.6,1.3-2.4,2
	c-0.1,0.1-0.1,0.1-0.2,0.2s-0.2,0.1-0.2,0.2c-1.2,1.1-2.5,2.3-3.6,3.5c-1.1,1.2-2.3,2.5-3.4,4c-0.4,0.4-0.6,0.8-0.9,1.1
	c-0.2,0.2-0.4,0.4-0.5,0.6c-1.4,1.8-2.7,3.7-3.9,5.5c-1.1,1.8-2.2,3.7-3,5.5c-0.6,1.2-1.1,2.4-1.6,3.6c-0.4,1.2-0.9,2.4-1.2,3.6
	c-0.2,0.6-0.4,1.2-0.4,1.8c-0.7,3-1.1,5.9-1.1,8.8c0,0,0,0,0,0.1c0,5.5,1.8,9.8,5,12.8c0.3,0.3,0.5,0.4,0.8,0.7l0.1,0.1
	c0.3,0.2,0.4,0.4,0.7,0.5c0.2,0.1,0.3,0.2,0.4,0.3c0.3,0.2,0.5,0.4,0.9,0.5c3.2,1.7,7.1,2.5,11.8,2.5c0.6,0,1.2,0,1.9-0.1
	c0.2,0,0.4,0,0.7-0.1c0.9-0.1,1.8-0.2,2.8-0.3c1.1-0.2,2.2-0.3,3.3-0.5c1.3-0.3,2.6-0.5,4-0.9c3.4-0.9,6.9-2,10.2-3.5
	c0.7-0.3,1.3-0.6,2-1c0.4-0.2,0.9-0.4,1.3-0.7c0.7-0.4,1.3-0.7,2-1.1c0.7-0.4,1.3-0.7,2-1.1c0.4-0.3,0.8-0.5,1.2-0.7
	c0.4-0.3,0.8-0.4,1.2-0.7c1.1-0.7,2.2-1.4,3.2-2.2c2-1.5,3.9-3,5.5-4.6c0.9-0.8,1.7-1.6,2.4-2.5c0.7-0.8,1.3-1.5,1.9-2.3l1.3-1.7
	l0,0v1.1v1.1c0,0.9,0.1,1.7,0.2,2.4c0.2,1.4,0.4,2.6,0.8,3.7c0.3,0.6,0.5,1.2,0.8,1.8c0.4,0.6,0.8,1.1,1.2,1.6
	c0.2,0.2,0.3,0.3,0.4,0.4c0.2,0.2,0.4,0.3,0.7,0.4c0.1,0.1,0.3,0.2,0.4,0.2c0.2,0.1,0.3,0.2,0.4,0.2c0.1,0,0.1,0.1,0.2,0.1
	c0.2,0.1,0.4,0.1,0.4,0.2c0.2,0.1,0.3,0.1,0.4,0.2h0.1c0.1,0,0.2,0,0.2,0.1c0.3,0.1,0.5,0.1,0.9,0.2l0,0l0,0
	c0.4,0.1,0.8,0.1,1.2,0.2h0.1c0.4,0,0.9,0,1.3,0s1,0,1.4-0.1l0,0c0.1,0,0.3,0,0.4,0c0.4,0,0.7-0.1,1.1-0.1c0.1,0,0.2,0,0.3,0
	c0.1,0,0.1,0,0.2,0c0.3,0,0.5-0.1,0.8-0.1c0.3,0,0.5-0.1,0.8-0.1l0,0c1.1-0.2,2.3-0.5,3.5-1c0.6-0.3,1.2-0.5,1.8-0.8
	c1-0.4,1.9-1,2.9-1.5c0.4-0.2,0.7-0.4,1-0.6c0.7-0.4,1.3-0.9,2-1.3c1.4-1,2.8-2,4.2-3.2c0.4-0.4,0.8-0.6,1.1-1
	c1.4-1.2,2.8-2.5,4.1-3.9c3-3,5.8-6.2,8.5-9.8l1.5-2l-0.2,2.5c0,0.8-0.1,1.5-0.1,2.1c0,0.2,0,0.4,0,0.6c0,0.6,0,1.3,0.1,1.8
	c0,0.6,0.1,1.1,0.2,1.8c0.2,1.1,0.4,2.1,0.7,3c0.4,1.2,1,2.2,1.8,3c0.3,0.3,0.5,0.5,0.8,0.7c0.1,0.1,0.2,0.1,0.3,0.2
	c0.2,0.1,0.4,0.3,0.5,0.4c0.3,0.2,0.5,0.3,0.9,0.4c0.1,0,0.1,0.1,0.2,0.1c0.3,0.1,0.6,0.3,1,0.4h0.1c0.4,0.1,0.7,0.2,1.1,0.3l0,0
	c0.4,0.1,0.8,0.1,1.2,0.2h0.1c0.4,0,0.9,0,1.3,0s1,0,1.4-0.1c0.1,0,0.3,0,0.4,0c0.4,0,0.7-0.1,1.1-0.1c0.2,0,0.3,0,0.4-0.1
	c0.5-0.1,1.1-0.2,1.6-0.3l0,0c0.3-0.1,0.6-0.1,0.9-0.2c1.8-0.4,3.8-1.2,5.9-2.3c3.1-1.6,6.4-4,9.9-6.9c0.7-0.6,1.4-1.3,2.1-1.9
	c0.7-0.7,1.4-1.3,2.1-2c1.4-1.4,2.7-2.8,4-4.3c0.1-0.1,0.2-0.2,0.3-0.3c0.3-0.3,0.5-0.6,0.7-0.9c0.8-1,1.5-1.8,2-2.7
	c0.4-0.6,0.7-1.1,1-1.7s0.5-1.1,0.7-1.6c0.2-0.5,0.4-1,0.5-1.4c0.4-1.1,0.4-2.2,0.4-3.1c0-0.4,0-0.8-0.1-1.1
	c-0.4-2.5-1.7-3.8-1.7-3.8l0,0c-2,3.1-4.1,5.9-6.2,8.4c-0.7,0.8-1.3,1.6-2,2.4c-0.4,0.5-0.9,1-1.3,1.4c-0.3,0.3-0.5,0.5-0.8,0.8
	c-0.4,0.4-0.9,0.8-1.3,1.2c-0.5,0.4-1,0.7-1.3,1c-0.6,0.4-1.2,0.7-1.7,0.8c-0.2,0-0.3,0-0.4,0l0,0h-0.1h-0.1h-0.1l0,0
	c-0.1,0-0.1,0-0.2,0h-0.1c-0.1,0-0.2-0.1-0.3-0.1l0,0c-0.4-0.2-0.7-0.4-0.9-0.9l0,0l0,0l0,0l0,0l0,0c-0.1-0.1-0.1-0.3-0.2-0.4
	c0,0,0-0.1-0.1-0.2l0,0c0-0.1-0.1-0.3-0.1-0.4s0-0.2-0.1-0.3c0-0.1,0-0.2,0-0.2v-0.2c0-0.1,0-0.2,0-0.2c0-0.2,0-0.4,0-0.7
	c0-1.2,0.2-2.7,0.6-4.7c0.6-3,1.2-6,1.9-9.1c0.7-3.2,1.5-6.4,2.4-9.8c0.9-3.3,1.8-6.9,2.7-10.4c0.5-1.8,1-3.6,1.5-5.4
	c0.5-1.8,1.1-3.7,1.6-5.5c1.1-3.5,2-6.8,3.1-9.8c0.4-1.1,0.7-2,1-3c0.9-2.5,1.8-5,2.5-7.3c0.4-1.1,0.8-2.2,1.2-3.3
	c0.8-2.1,1.6-4,2.4-5.7c0.5-1.1,1.1-2.2,1.5-3.2c0.5-1,1-1.8,1.5-2.7c0.2-0.4,0.4-0.7,0.6-1.1c0.3-0.4,0.5-0.8,0.8-1.1
	c0.4-0.5,0.7-1,1.1-1.4c0,0,0,0,0.1-0.1c0.3-0.3,0.4-0.5,0.5-0.7c0.3-0.4,0.4-0.7,0.4-0.8h-0.1c-0.1,0-0.1,0-0.2,0s-0.1,0-0.2,0
	c-0.1,0-0.3,0-0.4,0c-0.1,0-0.2,0-0.3,0c-0.1,0-0.3,0-0.4,0s-0.3,0-0.4,0c-1.7,0.1-4,0.4-7.2,1c-7.4,1.3-13.1,3.4-17.1,6.2
	c-0.6,0.4-1.1,0.9-1.8,1.4c-0.1,0.1-0.2,0.2-0.3,0.2c-0.2,0.2-0.4,0.4-0.5,0.5c-0.7,0.6-1.3,1.3-1.9,2.1c-1.8,2.2-3.3,4.8-4.5,7.9
	c-1.1,2.6-2,5.4-3,8.1c-0.6,1.8-1.3,3.8-1.9,5.7s-1.2,3.9-1.8,5.9c-0.9,3-1.8,6.1-2.6,9.2c-0.3,1.1-0.5,2.1-0.9,3.2
	c-1.2,4.7-2.4,9.7-3.5,14.7l0,0c-1.5,6.9-1.5,6.9-5.7,13.7c-0.4,0.6-0.9,1.3-1.2,1.9c-0.6,0.9-1.2,1.8-1.8,2.6
	c-0.6,0.9-1.2,1.7-1.8,2.5c-1.8,2.4-3.6,4.5-5.5,6.4c-0.7,0.7-1.3,1.4-2,2c-1.2,1.1-2.2,1.6-3.1,1.8c-0.2,0-0.3,0-0.4,0l0,0l0,0
	c-0.1,0-0.2,0-0.2,0h-0.1c-0.2,0-0.3-0.1-0.4-0.1c-0.2-0.1-0.3-0.1-0.4-0.2c-0.2-0.1-0.4-0.4-0.5-0.6c-0.1-0.1-0.1-0.1-0.2-0.2l0,0
	l0,0c-0.1-0.1-0.1-0.3-0.2-0.4c0-0.1,0-0.1-0.1-0.2c0-0.1-0.1-0.3-0.1-0.4s0-0.2-0.1-0.3c0-0.1,0-0.3-0.1-0.4c0-0.1,0-0.2,0-0.2
	c0-0.2,0-0.4,0-0.7c0-0.6,0.1-1.3,0.2-2.1c0.1-0.8,0.3-1.7,0.4-2.6c0.9-4.5,1.9-9.1,3.1-14.1c0.8-3.3,1.7-6.6,2.5-10.1
	c1.4-5.2,2.9-10.6,4.5-16.1c0.9-3.1,1.8-6,2.7-8.8c3.6-11.2,6.9-19.6,9.8-25.1c0.2-0.4,0.4-0.7,0.6-1.1c0.9-1.5,1.7-2.7,2.5-3.7
	c0.6-0.8,0.9-1.2,1-1.5c0,0,0,0,0-0.1c0,0-0.1,0-0.2,0c-0.2,0-0.5-0.1-1-0.1c-0.2,0-0.4,0-0.5,0c-0.2,0-0.4,0-0.5,0
	c-0.2,0-0.4,0-0.6,0.1c-0.3,0-0.4,0-0.7,0.1c-0.7,0.1-1.4,0.2-2.2,0.3c-0.7,0.1-1.5,0.3-2.4,0.4c-0.4,0.1-0.7,0.1-1.1,0.2
	c-0.5,0.1-1.1,0.2-1.7,0.4c-0.5,0.1-1.1,0.3-1.6,0.4c-1.1,0.3-2,0.5-3,0.8c-2.9,0.8-5.5,1.8-7.6,2.9l0,0l0,0
	c-1.2,0.6-2.3,1.2-3.3,1.9c-1.3,0.9-2.5,2-3.6,3.2c-0.4,0.4-0.7,0.8-1.1,1.2c-0.9,1.1-1.7,2.3-2.4,3.5c-0.7,1.3-1.3,2.6-1.9,4.1
	c-1.2,3-2.4,6.2-3.5,9.4c-2.5,7.1-4.7,14.9-6.9,23c-0.3,1.1-0.6,2.4-0.9,3.5c-0.4,1.9-1,3.9-1.4,5.8c-0.9,3.8-1.8,7.8-2.6,12l0,0
	c0,0.1-0.1,0.2-0.1,0.4c0,0.2-0.1,0.3-0.1,0.4l-0.1,0.3c-0.1,0.4-0.2,0.7-0.2,1.1c-1,4.7-1.6,5.6-6.2,11.5c-3.4,4-7.2,7.6-11.3,10.6
	c-4,3-7.7,5.1-11.3,6.4c-0.7,0.3-1.4,0.4-2.1,0.7c-0.7,0.2-1.4,0.4-2,0.4c-0.7,0.1-1.3,0.2-2,0.3l0,0c-0.4,0-0.6,0-0.9,0h-0.1l0,0
	c-0.1,0-0.2,0-0.3,0c-0.3,0-0.4,0-0.7-0.1c-0.1,0-0.2,0-0.4,0c-0.2,0-0.4-0.1-0.6-0.1c0,0,0,0-0.1,0s-0.2,0-0.3-0.1
	c-0.3-0.1-0.6-0.2-0.9-0.3c-0.8-0.3-1.4-0.7-2-1.2c-1.8-1.6-2.6-4.1-2.6-7.6c0-0.4,0-0.8,0-1.2c0.1-1.1,0.3-2.2,0.4-3.3
	c0-0.2,0.1-0.4,0.1-0.6l0.1-0.5h0.2l0.4-0.1c0.6-0.1,1.2-0.2,1.8-0.3c1.2-0.2,2.4-0.4,3.5-0.7c4.1-1,8.1-2.4,12-4.3
	c3.3-1.7,6.5-3.6,9.6-6c3.3-2.5,5.9-5.2,8-7.9c1.7-2.3,3-4.6,3.9-6.9c0.2-0.4,0.4-1,0.4-1.4c0.3-1,0.4-1.9,0.6-2.8
	c0.2-1,0.2-1.9,0.2-2.9c0-0.3,0-0.5,0-0.8c0-0.3-0.1-0.5-0.1-0.9c-0.1-0.3-0.1-0.6-0.2-0.9c-0.1-0.5-0.3-1-0.5-1.4
	c-1.5-3.1-4.8-4.7-10.4-4.8c-0.4,0-0.9,0-1.4,0c-1.8,0-3.8,0.2-6,0.4c-0.6,0.1-1.2,0.2-1.8,0.3c-0.6,0.1-1.3,0.2-1.9,0.4
	c-0.6,0.1-1.3,0.3-1.9,0.4C270.5,316.5,268.6,317,266.7,317.7z M273,324c0.1,0.1,0.1,0.1,0.2,0.2l0.1,0.1c0,0,0,0.1,0.1,0.1
	c0,0,0,0,0.1,0.1l0,0c0,0.1,0.1,0.1,0.1,0.2c0,0,0,0,0,0.1l0,0c0,0.1,0.1,0.1,0.1,0.2v0.1c0.1,0.2,0.2,0.3,0.2,0.4
	c0,0.1,0.1,0.3,0.1,0.4s0,0.1,0,0.2c0,0.1,0,0.1,0,0.2c0,0.2,0.1,0.4,0.1,0.5l0,0l0,0c0,0.2,0.1,0.4,0.1,0.5c0,0.1,0,0.2,0,0.4l0,0
	c0,0.3,0,0.6,0,0.9c0,0.8-0.1,1.7-0.2,2.5c-0.1,0.3-0.1,0.5-0.2,0.8c-0.1,0.5-0.3,1.1-0.4,1.7c-0.4,1.2-0.8,2.5-1.3,3.7
	c-0.5,1.2-1.1,2.4-1.9,3.4c-0.9,1.3-1.8,2.6-3,3.8c-0.4,0.4-0.8,0.8-1.2,1.2l-0.3,0.2c-1.6,1.4-3.2,2.6-4.8,3.5
	c-0.7,0.4-1.3,0.7-2,1l-1.3,0.5l0.4-1.4c0.8-3.6,1.6-6.8,2.5-9.7c2.5-8.5,5.4-13.5,8.4-15.4c0.4-0.3,0.9-0.4,1.4-0.6
	c0.2,0,0.4-0.1,0.4-0.1c0,0,0,0,0.1,0c0.2,0,0.4-0.1,0.5-0.1l0,0c0.1,0,0.2,0,0.3,0h0.1l0,0c0,0,0,0,0.1,0c0.1,0,0.2,0,0.3,0.1l0,0
	l0,0c0.1,0,0.3,0.1,0.4,0.2C272.6,323.6,272.8,323.8,273,324C273,323.9,273,323.9,273,324z"/>
<path fill="#0C2A4A" d="M72.7,352.2c0.2,0.4,0.4,1,0.7,1.4c0.4,0.8,1,1.6,1.6,2.2c0.4,0.4,0.7,0.8,1.1,1.1c0.1,0,0.1,0.1,0.1,0.1
	s0.1,0,0.1,0.1l0,0l0,0c0.3,0.3,0.5,0.4,0.9,0.7c0,0,0,0,0.1,0.1c0.1,0,0.1,0.1,0.2,0.1c0.2,0.2,0.4,0.3,0.6,0.4
	c0.1,0.1,0.2,0.1,0.3,0.2l0,0h0.1c0.3,0.2,0.5,0.3,0.9,0.4h0.1c0.1,0,0.1,0.1,0.2,0.1c0.2,0.1,0.3,0.1,0.4,0.2s0.3,0.1,0.4,0.2
	c0.1,0,0.2,0.1,0.3,0.1c0.1,0,0.2,0.1,0.3,0.1c0.2,0.1,0.4,0.1,0.4,0.2h0.1c0.1,0,0.2,0.1,0.3,0.1c0.3,0.1,0.6,0.2,0.9,0.2
	c0.2,0,0.3,0,0.4,0.1H83c0.2,0,0.4,0.1,0.5,0.1c0.2,0,0.4,0,0.5,0c0.4,0,0.6,0,1,0l0,0c0.1,0,0.2,0,0.4,0c0.4,0,1,0,1.4-0.1h0.1H87
	c0.5-0.1,1.1-0.1,1.7-0.3c1.1-0.2,2.2-0.4,3.3-0.9c0.4-0.1,0.8-0.3,1.1-0.4l0,0c0.1,0,0.2-0.1,0.3-0.1c0.1,0,0.1,0,0.2-0.1h0.1
	c0,0,0,0,0.1,0c0,0,0.1,0,0.1-0.1c0.1,0,0.1,0,0.2-0.1c0.1,0,0.1,0,0.2-0.1c0,0,0.1,0,0.1-0.1h0.1c0,0,0.1,0,0.1-0.1
	c0.1,0,0.1-0.1,0.2-0.1h0.1l0,0c0,0,0,0,0.1,0c0,0,0.1,0,0.1-0.1c0,0,0,0,0.1,0c0,0,0,0,0.1,0h0.1h0.1c0,0,0,0,0.1,0l0,0l0,0
	c0,0,0.1,0,0.1-0.1l0,0l0,0c0,0,0.1,0,0.1-0.1c0,0,0,0,0.1,0c0,0,0.1,0,0.1-0.1l0,0c0.1-0.1,0.1-0.1,0.2-0.2l0,0l0,0l0,0l0,0l0,0
	l0,0l0,0l0,0l0,0l0,0l0,0l0,0c0-0.1,0-0.3-0.1-0.4c0-0.1-0.1-0.2-0.1-0.3c0-0.1-0.1-0.2-0.2-0.3l0,0c0,0,0-0.1-0.1-0.1l0,0l0,0
	c-0.4-0.5-0.6-1.1-1-1.6c-0.2-0.3-0.3-0.6-0.4-0.9c-1.5-3.3-2.4-7.6-2.6-12.9c0-0.6-0.1-1.2-0.1-1.8s0-1.2,0-1.9c0-0.9,0-1.7,0-2.5
	l0,0c0.1-3.7,0.5-7.2,1.1-10.6c0.3-1.5,0.7-3,1.1-4.4c0-0.1,0.1-0.2,0.1-0.3c0.1-0.4,0.3-0.7,0.4-1.1c0.3-0.7,0.5-1.4,0.8-2
	c0.2-0.4,0.4-0.8,0.5-1.1c0.2-0.4,0.4-0.8,0.6-1.1c0.1-0.1,0.1-0.2,0.2-0.3c0.1-0.2,0.2-0.3,0.3-0.4c0.4-0.7,1-1.2,1.5-1.8
	c0.2-0.2,0.4-0.3,0.4-0.4c0.6-0.5,1.3-0.9,2-1.1c0.2-0.1,0.4-0.1,0.6-0.2c0.4-0.1,0.9-0.2,1.2-0.2c1.2,0,2.3,0.4,3.3,1.1
	c0.4,0.3,0.8,0.7,1.1,1.1c0.2,0.2,0.4,0.4,0.5,0.6c0.4,0.5,0.8,1.1,1.1,1.8c0.2,0.4,0.4,0.7,0.5,1.1s0.4,0.8,0.5,1.2
	c0.1,0.3,0.2,0.5,0.3,0.8c0.2,0.5,0.4,1.1,0.5,1.8c0.6,2.1,1.1,4.7,1.5,7.6c0.1,0.4,0.1,0.9,0.2,1.2c0.2,1.1,0.3,2.4,0.4,3.6
	c0.1,1.2,0.2,2.5,0.4,4c0.2,2.7,0.3,5.6,0.4,8.8c0,1.6,0.1,3.2,0.1,4.8c0.1,9-0.3,18.6-0.9,29c-0.2,2.6-0.4,5.3-0.5,7.9
	c-0.3,4-0.6,8.2-1.1,12.4c-0.4,4.2-0.8,8.5-1.3,12.9c-0.2,1.6,0.4,2.1,1,2.4c0.1,0.1,0.3,0.1,0.4,0.2h0.1c0.2,0,0.3,0.1,0.4,0.1
	c0.1,0,0.1,0,0.2,0c0.2,0,0.3,0,0.4,0c0,0,0.1,0,0.2,0c0.2,0,0.4,0,0.6-0.1l0,0c0.4-0.1,0.6-0.1,1-0.2c0.3-0.1,0.6-0.2,0.9-0.3
	c0.7-0.3,1.4-0.4,2-0.6c0.3-0.1,0.6-0.2,1-0.3c0.2-0.1,0.4-0.1,0.5-0.2c0.5-0.2,1.1-0.4,1.6-0.5l1.7-0.5l0.5-0.2
	c0.4-0.2,0.9-0.3,1.3-0.4c0.9-0.3,1.8-0.6,2.7-0.9c0.2-0.1,0.4-0.1,0.5-0.2c1-0.4,1.9-0.6,2.9-0.9c0.2-0.1,0.4-0.2,0.6-0.2
	c0.1,0,0.1-0.1,0.2-0.1c0.5-0.2,1.1-0.4,1.5-0.7c0,0,0,0,0.1,0c1.7-0.9,2.8-1.8,3.6-3.1c0.4-0.8,1-1.6,1.5-2.4c1-1.7,2-3.4,3.2-5.4
	c1.1-1.9,2.3-3.9,3.5-6c6.7-11.7,15-26.7,24.8-44.9c0.1-0.1,0.1-0.2,0.2-0.3c0.1-0.2,0.2-0.4,0.3-0.4c0.3-0.4,0.5-0.6,1-0.8h0.1
	c0.1,0,0.1,0,0.2,0l0,0l0,0c0.8,0,1.1,0.8,1.1,1.4c0,0.1,0,0.2,0,0.3c0,0.1,0,0.2,0,0.2c0.1,0.8,0.1,1.6,0.2,2.3
	c0.1,0.9,0.1,1.8,0.2,2.5c0.1,1.5,0.2,3,0.4,4.4c0.3,3.1,0.4,6.1,0.7,8.9c0.1,1,0.2,1.8,0.3,2.7c0.1,1.2,0.2,2.4,0.3,3.5
	c0.1,1.1,0.2,2.3,0.3,3.3c0.1,1.1,0.2,2.1,0.3,3.2c0.2,1.6,0.3,3,0.4,4.4c0.1,1,0.2,1.8,0.3,2.7c0.7,6.4,1.4,11.3,2,14.5
	c0,0.1,0,0.2,0.1,0.3c0.2,0.9,0.5,1.5,0.8,1.8c0.1,0.1,0.2,0.2,0.3,0.3c0.3,0.2,0.5,0.3,0.8,0.4c0.2,0,0.4,0,0.4,0l0,0
	c0.1,0,0.1,0,0.2,0c0.1,0,0.1,0,0.2,0h0.1c0.1,0,0.1,0,0.2,0c0.6-0.1,1.3-0.4,2.3-0.7c0.4-0.1,0.6-0.3,1-0.4c0.1,0,0.3-0.1,0.4-0.2
	c0.1-0.1,0.4-0.2,0.6-0.3c0.3-0.1,0.5-0.2,0.8-0.3c0.7-0.3,1.7-0.6,2.8-1.1c0.3-0.1,0.4-0.2,0.7-0.3c0.5-0.2,1.1-0.4,1.6-0.5
	c0.5-0.2,1.1-0.4,1.8-0.6c0.1,0,0.3-0.1,0.4-0.1c0.3-0.1,0.4-0.2,0.7-0.3c0.2-0.1,0.4-0.2,0.6-0.3c0.5-0.3,1-0.5,1.3-0.8
	c0.5-0.4,0.9-0.8,1.2-1.3c1.7-2.4,3.3-4.7,4.8-6.9c5.9-8.5,11.5-17.1,16.8-25.3c3.2-5,6.2-10,9.2-14.9c1-1.7,2-3.3,3-4.9
	c1.4-2.4,2.8-4.7,4.1-7.1c2.1-3.6,4-7.1,5.9-10.6c1-1.8,2-3.7,2.9-5.5c0.5-1.1,1.1-2,1.7-3c0-0.1,0.1-0.1,0.1-0.2
	c0.5-1,1.1-1.9,1.6-2.9c1.1-2,2.2-4,3.3-5.9c0.4-0.9,0.9-1.7,1.3-2.5c11.7-21.7,20.1-39,22.8-51.5c0.1-0.5,0.3-1.1,0.4-1.7
	c0.4-1.8,0.5-3.5,0.5-5.1c0.3-7.5-0.6-13.7-2.5-18.5c-0.2-0.4-0.4-0.8-0.5-1.1c-0.1-0.2-0.2-0.4-0.3-0.5c0-0.1-0.1-0.2-0.1-0.3
	c-0.5-1.1-1.1-2-1.8-2.9c-0.4-0.4-0.7-0.9-1.1-1.3c-0.4-0.4-0.7-0.8-1.1-1.1c-0.3-0.3-0.5-0.4-0.8-0.7l0,0c-0.4-0.3-0.8-0.5-1.1-0.8
	c-0.1,0-0.1-0.1-0.2-0.1c-0.1-0.1-0.2-0.1-0.2-0.2c-0.1-0.1-0.2-0.1-0.3-0.2c-0.3-0.2-0.4-0.3-0.7-0.4c-0.1,0-0.1-0.1-0.2-0.1
	s-0.2-0.1-0.2-0.1c-0.4-0.2-0.7-0.4-1.1-0.5c-0.1,0-0.1-0.1-0.2-0.1h-0.1c-0.1,0-0.3-0.1-0.4-0.1c-0.4-0.1-0.6-0.3-1-0.4
	c-0.2-0.1-0.4-0.1-0.6-0.2c-0.3-0.1-0.6-0.2-0.9-0.3c-0.4-0.1-0.8-0.2-1.2-0.3c-0.3-0.1-0.5-0.1-0.8-0.2h-0.1
	c-0.3,0-0.5-0.1-0.9-0.1c-0.2,0-0.4,0-0.6-0.1c-0.4,0-0.7-0.1-1.1-0.1c-0.2,0-0.4,0-0.5,0c-0.7,0-1.4,0-2.1,0c-0.2,0-0.4,0-0.5,0
	c0,0,0,0-0.1,0c-0.3,0-0.6,0-1,0.1c-0.1,0-0.3,0-0.4,0s-0.4,0-0.4,0c-0.2,0-0.4,0-0.6,0.1c-0.1,0-0.1,0-0.2,0
	c-0.4,0.1-0.8,0.1-1.2,0.2c-0.2,0-0.4,0.1-0.6,0.1c-0.3,0-0.5,0.1-0.8,0.2c-0.4,0.1-0.7,0.1-1.1,0.2c-1.6,0.3-3.3,0.7-5.1,1.1
	c-0.4,0.1-0.8,0.2-1.1,0.4c-0.8,0.2-1.5,0.4-2.3,0.7c-0.5,0.2-1.1,0.4-1.6,0.5c-1.1,0.4-2.3,0.8-3.5,1.2c-0.7,0.3-1.4,0.5-2.2,0.8
	c-0.1,0-0.1,0.1-0.2,0.1c-0.2,0.1-0.4,0.2-0.6,0.3c-0.5,0.2-0.9,0.4-1.3,0.6c-2,1.1-3,2.3-3,3.9c0,0.4,0.1,0.9,0.8,1.3
	c0.7,0.5,1.5,1.1,2.2,1.8c0.3,0.2,0.5,0.4,0.8,0.7l0,0l0,0l0,0l0,0l0,0l0,0c0.7,0.7,1.4,1.4,2,2.2c0.4,0.5,0.9,1.1,1.2,1.8
	c0.2,0.3,0.4,0.5,0.5,0.8c0.1,0.2,0.2,0.4,0.3,0.5c0.4,0.7,0.8,1.4,1.1,2.1c0.4,0.8,0.7,1.6,1.1,2.5c0.2,0.4,0.4,0.9,0.5,1.2l0,0
	c0.7,1.9,1.2,4,1.6,6.3c0.2,1.1,0.4,2.3,0.5,3.4c0.1,0.6,0.1,1.2,0.2,1.8c0.1,0.6,0.1,1.2,0.1,1.8c0.3,6.9-0.5,16.7-2.5,27.4
	c-0.4,2.1-0.8,4.3-1.2,6.6c-0.4,1.5-0.6,3-1,4.5c-0.7,3-1.5,6.1-2.3,9.1c-0.4,1.5-0.9,3.1-1.3,4.6c-1.4,4.6-2.9,9.1-4.7,13.5
	c-3.2,7.6-6.9,15.6-11.3,23.7c-0.6,1.1-1.2,2.3-1.9,3.4c-0.3,0.4-0.5,0.9-0.8,1.3c-1,1.8-2,3.5-3,5.3c-0.5,0.9-1.1,1.8-1.7,2.7
	c-0.7,1.1-1.4,2.4-2.2,3.5c-0.4,0.6-0.8,1.2-1.1,1.9l-0.9,1.4l-0.4,0.6l0,0l-0.1-1.6l-0.1-0.8c-0.9-15.6-1.4-27.3-1.6-35.3
	c0-1.1,0-2.2,0-3.2c0-4.1,0-8.1,0.2-11.8c0.3-8.3,1-15.6,2.1-21.8l0.1-0.4c0-0.2,0.1-0.4,0.1-0.4c0-0.2,0.1-0.4,0.1-0.6
	c0-0.3,0.1-0.5,0.2-0.7c0.2-1,0.3-1.7,0.4-2.2c0-0.4,0.1-0.5,0.1-0.7c0-0.1,0-0.1,0-0.2l0,0c0-0.1,0-0.3,0-0.3s0-0.2-0.1-0.2l0,0
	l0,0c-0.1-0.1-0.1-0.1-0.2-0.2s-0.2,0-0.3,0h-0.1c-0.1,0-0.2,0-0.4,0c-0.4,0.1-0.8,0.2-1.2,0.4c-0.1,0-0.1,0-0.2,0.1
	c-0.1,0-0.2,0.1-0.3,0.1c-0.1,0-0.3,0.1-0.4,0.2c-0.3,0.1-0.5,0.2-0.8,0.3c-0.1,0-0.1,0-0.2,0.1c-1.9,0.9-3.8,1.8-5.5,2.5
	c-0.6,0.3-1.1,0.5-1.7,0.8c-0.6,0.3-1.1,0.5-1.8,0.9c-1.6,0.8-3,1.5-4.4,2.2c-1.1,0.6-2.2,1.1-3.2,1.7c-1,0.5-1.9,1.1-2.7,1.6l0,0
	l0,0c0,0-0.1,0-0.1,0.1c0,0.1-0.1,0-0.1,0.1c-0.3,0.2-0.5,0.4-0.8,0.4c-0.2,0.1-0.4,0.3-0.5,0.4c-0.9,0.6-1.8,1.1-2.5,1.7
	c-0.4,0.3-0.7,0.5-1.1,0.9c-1.1,1-1.8,2.1-2.4,3.3c-0.2,0.4-0.4,0.9-0.4,1.3c-0.8,3.1-1.8,6.2-2.8,9.5c-0.4,1.1-0.7,2.2-1.1,3.3
	c-0.8,2.2-1.6,4.4-2.5,6.7c-1.3,3.4-2.7,6.9-4.3,10.5c-1.6,3.5-3.3,7.2-5,10.9c-0.6,1.2-1.2,2.5-1.8,3.7c-1.8,3.8-3.9,7.6-6,11.4
	c-1.2,2.2-2.3,4.2-3.3,6c-0.4,0.6-0.7,1.2-1,1.8l-0.8,1.3l-0.8,1.3l0.1-1.6l0.1-1.5c0,0,0,0,0-0.1c0.4-9.3,0.4-17.6,0.4-24.7
	c0-1.1,0-2,0-3s0-1.9,0-2.9c0-1,0-1.8-0.1-2.7c0-1.8-0.1-3.4-0.2-5c-0.1-1.6-0.2-3.1-0.3-4.5c-0.1-1.4-0.2-2.7-0.4-4
	c-0.1-0.6-0.2-1.1-0.2-1.8c-0.1-0.6-0.2-1.1-0.3-1.7c-0.2-1.1-0.4-2.2-0.5-3.2l0,0c-0.1-0.4-0.2-0.8-0.3-1.2
	c-0.2-0.8-0.4-1.5-0.5-2.3v-0.1c0-0.1,0-0.1-0.1-0.2c-0.1-0.3-0.2-0.5-0.3-0.8c0-0.2-0.1-0.3-0.1-0.4l0,0c-0.1-0.3-0.2-0.4-0.3-0.7
	c-0.4-1.2-0.8-2.3-1.3-3.3c-0.7-1.6-1.5-2.9-2.4-4c-0.3-0.4-0.6-0.7-0.9-1.1c-0.4-0.4-0.7-0.7-1.1-1c-0.1-0.1-0.2-0.2-0.4-0.3
	c-0.3-0.3-0.6-0.4-0.9-0.6c-0.1-0.1-0.2-0.2-0.4-0.2c-0.4-0.3-0.8-0.4-1.2-0.7c-0.2-0.1-0.3-0.1-0.4-0.2c-0.3-0.2-0.6-0.3-0.9-0.4
	c-0.2-0.1-0.4-0.2-0.6-0.3c-0.3-0.1-0.5-0.2-0.8-0.3c-0.4-0.1-0.9-0.3-1.3-0.4c-0.2,0-0.4-0.1-0.6-0.1c-0.4-0.1-0.6-0.1-1-0.2
	c-0.2,0-0.4,0-0.5-0.1c-0.4,0-0.7-0.1-1.1-0.1c-0.1,0-0.2,0-0.3,0c-0.4,0-0.8,0-1.2,0c-0.4,0-0.7,0-1.1,0l0,0l0,0
	c-0.1,0-0.3,0-0.4,0c-0.4,0-0.6,0.1-1,0.1c-0.3,0-0.5,0.1-0.8,0.1c-0.3,0-0.5,0.1-0.8,0.1c-0.4,0.1-0.7,0.1-1.1,0.2
	c-0.3,0-0.4,0.1-0.7,0.1c-0.6,0.1-1.1,0.3-1.8,0.4h-0.1c-0.6,0.2-1.1,0.3-1.8,0.4c-1,0.3-1.9,0.5-3,0.9c-0.7,0.3-1.4,0.4-2.1,0.7
	c-1.1,0.4-2.4,0.9-3.5,1.4c-0.7,0.4-1.4,0.6-2.2,1c-1,0.4-1.9,1-2.9,1.5c-0.5,0.3-1.1,0.6-1.7,1c-0.9,0.5-1.7,1.1-2.5,1.6
	c-0.2,0.2-0.4,0.3-0.6,0.4c-1.2,0.8-2.4,1.7-3.5,2.5c-0.6,0.4-1.1,0.9-1.7,1.4s-1.1,1-1.7,1.5c-0.3,0.3-0.6,0.5-0.9,0.8
	c-0.2,0.2-0.3,0.3-0.4,0.4l0,0c-6.2,5.9-10.5,12.6-12.7,19.7l0,0c-0.5,1.7-0.9,3.4-1.2,5.1c-0.1,0.4-0.1,0.9-0.2,1.4
	c-0.3,2.1-0.4,4.1-0.4,6c0,2.9,0.4,5.5,1,7.6C72.1,350.9,72.4,351.6,72.7,352.2z"/>
<path fill="#0C2A4A" d="M273,476.6c0.3-0.4,0.5-0.8,0.8-1.2c3.2-5.1,5.6-10.6,7.6-16.1c2.9-8.4,4.3-17.4,4.2-26.8c0-2-0.1-4-0.3-5.8
	c-0.1-1-0.2-1.8-0.4-2.7c-0.2-1.1-0.4-2.2-0.6-3.3c-0.2-0.6-0.3-1.3-0.4-1.9c-0.7-2.5-1.6-4.7-2.6-6.9c-0.4-0.7-0.7-1.3-1.1-2
	c-2.7-4.6-6.6-8.3-11.3-11c-1.2-0.7-2.5-1.3-3.9-1.9c-1.1-0.4-2.2-0.9-3.3-1.3c-5-1.7-10.6-2.6-17-2.8c-0.6,0-1.3,0-1.9,0
	c-1.4,0-2.8,0.1-4.2,0.1c-0.7,0-1.4,0.1-2.2,0.2c-1.2,0.1-2.5,0.2-3.7,0.4c-0.3,0-0.5,0.1-0.8,0.1c-1.5,0.2-3.1,0.4-4.6,0.6
	c-0.8,0.1-1.6,0.3-2.4,0.4c-2.3,0.4-4.5,0.9-6.7,1.4c-1.1,0.3-2.2,0.5-3.3,0.8c-1.1,0.3-2.2,0.6-3.3,0.9c-1.1,0.4-2.2,0.6-3.3,1
	c-1.1,0.4-2,0.6-3.1,1c-2.1,0.7-4.1,1.5-6.2,2.3c-2.1,0.9-4.1,1.8-6.2,2.6c-1.8,0.9-3.5,1.7-5.2,2.5c-0.8,0.4-1.5,0.8-2.3,1.2
	c-0.8,0.4-1.5,0.9-2.3,1.3c-1.9,1.1-3.7,2.3-5.5,3.5c-0.5,0.4-1.1,0.8-1.7,1.2c-1.8,1.3-3.4,2.6-4.8,4c-0.6,0.6-1.3,1.2-1.8,1.8
	c-0.9,0.9-1.8,1.8-2.5,2.7c-0.8,1-1.5,1.8-2.1,2.8c-0.4,0.5-0.7,1.1-1.1,1.7c-2.4,4-3.7,8-4,12.2c-0.1,0.9,0,1.8,0.1,2.6
	c0.1,0.4,0.2,0.9,0.3,1.3c0.2,0.9,0.5,1.8,0.9,2.7c0.5,1.4,1.3,2.8,2.2,4.2c0.4,0.7,0.9,1.3,1.4,1.8c0.3,0.4,0.5,0.6,0.8,0.9
	c0.2,0.2,0.4,0.4,0.6,0.6c0.1,0.1,0.2,0.1,0.3,0.2c0.1,0.1,0.2,0.1,0.3,0.2c0.1,0.1,0.1,0.1,0.2,0.2c0,0,0.1,0,0.1,0.1
	c0.1,0,0.1,0.1,0.2,0.1c0.1,0.1,0.3,0.2,0.4,0.3c0,0,0.1,0,0.1,0.1c0.1,0,0.1,0.1,0.2,0.1c0.1,0.1,0.3,0.2,0.4,0.2
	c0.1,0,0.2,0.1,0.3,0.1c0.2,0.1,0.3,0.1,0.4,0.2h0.1c0.1,0,0.1,0,0.2,0.1c0.2,0,0.4,0.1,0.4,0.1c0.1,0,0.1,0,0.2,0
	c0.2,0,0.4,0,0.5,0h0.1c0.3,0,0.4,0,0.7-0.1l0,0c0.1,0,0.1,0,0.2,0h0.1c0.4-0.1,0.8-0.6,1-1.2c0-0.1,0.1-0.2,0.1-0.3
	c0-0.1,0.1-0.2,0.1-0.3c0.4-1.8,1-3.6,1.5-5.4c0.5-1.8,1.2-3.4,1.9-5.1c0.4-0.9,0.7-1.7,1.1-2.5c1.1-2.5,2.5-4.8,4-7.1
	c0.5-0.9,1.1-1.8,1.8-2.5c0.3-0.4,0.4-0.6,0.7-1c0.5-0.7,1.1-1.4,1.6-2c2-2.5,4.3-4.8,6.7-6.9c1.4-1.2,2.8-2.3,4.3-3.3
	c1.1-0.8,2.2-1.6,3.4-2.2c1.8-1.1,3.7-2.1,5.6-3l1.1-0.4l1.1-0.4l0,0l-0.9,1.7l-0.7,1.3c-0.3,0.6-0.6,1.1-0.9,1.8
	c-1.2,2.3-2.4,4.7-3.6,7c-0.4,0.7-0.7,1.3-1.1,2c-4.8,9.6-9.2,19.3-13.4,29.1c-0.6,1.4-1.1,2.8-1.8,4.2c-0.7,1.8-1.4,3.6-2.1,5.4
	c-3.7,9.4-7,18.7-10,28.1c-0.2,0.7-0.4,1.3-0.5,2c-0.3,0.9-0.4,1.7-0.5,2.4c-0.3,1.3-0.4,2.5-0.4,3.3c0,1.7,0.7,3.4,2,5.3
	c0.4,0.4,0.7,1,1.1,1.4c0.3,0.4,0.6,0.7,1,1c0.1,0.1,0.1,0.1,0.2,0.2s0.3,0.3,0.4,0.4c0.1,0.1,0.1,0.1,0.2,0.2s0.2,0.2,0.3,0.2
	c0.2,0.2,0.4,0.3,0.5,0.4c2.4,1.8,4.5,3.3,6.3,4.4c0.5,0.4,1.1,0.7,1.6,1c0.5,0.4,1,0.6,1.4,0.9c0.1,0.1,0.3,0.2,0.4,0.2
	c0.4,0.3,0.8,0.4,1.1,0.6c0.1,0.1,0.3,0.2,0.4,0.2c0.3,0.2,0.4,0.3,0.7,0.4c0.1,0,0.1,0,0.2,0.1c0.1,0,0.2,0.1,0.3,0.1
	c0.1,0,0.2,0.1,0.3,0.1l0,0c0.1,0,0.1,0,0.2,0c0.2,0,0.3,0,0.4,0.1h0.1h0.1c0.3,0,0.4,0,0.6-0.1l0,0c0.4-0.1,0.6-0.2,1-0.4
	c1.8-0.8,2.7-1.8,3-3.4v-0.1c0-0.2,0.1-0.4,0.1-0.4c2.3-12.6,7-28,14.2-45.8c1.1-2.6,2.3-5.6,3.7-9c2.1-4.9,4.5-10.5,7.3-16.7
	c0.4-1.1,1-2.1,1.4-3.2c2.4-5.4,5.1-11.2,8-17.4c0.5-1.2,0.9-2.2,1-3.1c0-0.2,0-0.4,0-0.5v-0.1l0,0c0,0,0-0.1,0-0.2c0,0,0,0,0-0.1
	l0,0c0-0.3-0.2-0.6-0.4-1c-0.1-0.1-0.1-0.2-0.2-0.4c-0.2-0.3-0.4-0.5-0.5-0.8c-0.1-0.1-0.2-0.3-0.3-0.4c-0.4-0.5-1-1.1-1.7-1.8
	c-0.3-0.3-0.5-0.5-0.9-0.8c-1-0.9-2-1.8-3.3-2.7l-1.2-1l1.5-0.4c0.4-0.1,0.8-0.2,1.1-0.3c0.3-0.1,0.4-0.1,0.7-0.2
	c0.2,0,0.4-0.1,0.5-0.1c0.4-0.1,0.8-0.2,1.2-0.2c0.2,0,0.4-0.1,0.6-0.1c0.4,0,0.8-0.1,1.1-0.1c0.1,0,0.2,0,0.3,0c0.2,0,0.3,0,0.4,0
	c0.1,0,0.2,0,0.3,0c0.1,0,0.2,0,0.3,0c0.3,0,0.5,0,0.8,0c0.8,0,1.6,0.1,2.3,0.2c2.6,0.4,5.1,1.2,7.4,2.5c2.3,1.3,4.4,3.2,6.2,5.5
	c1.2,1.5,2.3,3.2,3.3,4.9c0.2,0.3,0.3,0.5,0.4,0.8c0.1,0.2,0.2,0.4,0.3,0.5c0.4,1,0.9,1.9,1.2,2.9c0.4,1,0.7,2,1.1,3.1
	c0.1,0.4,0.2,0.6,0.3,1c0.3,1,0.4,1.9,0.7,2.9c0.2,1,0.4,2,0.5,3.1c0.1,1.1,0.3,2.1,0.3,3.2c0.1,1.1,0.1,2.2,0.1,3.3
	c0,0.8,0,1.6,0,2.4c-0.1,2.4-0.2,4.7-0.5,7.1c-0.3,2.4-0.6,4.7-1.1,6.9c-0.2,0.9-0.4,1.8-0.6,2.7c-1.4,5.9-3.6,11.5-6.4,16.9
	c-4.7,8.9-10.2,15-16.7,18.4c-1,0.5-1.8,0.9-2.8,1.3c-1.6,0.6-3.3,1.1-4.9,1.4c-0.4,0.1-0.7,0.1-1.1,0.2c-0.3,0-0.5,0.1-0.8,0.1
	s-0.5,0.1-0.8,0.1l0,0l0,0l0,0c-0.7,0-1.3-0.1-2-0.2c-1.9-0.4-3.7-1.1-5.3-2.1c-0.4-0.3-0.8-0.6-1.2-1c-0.8-0.7-1.5-1.5-2.2-2.4l0,0
	c-0.1,0.1-0.1,0.2-0.2,0.2c-0.3,0.3-0.4,0.6-0.7,0.9c-0.4,0.6-0.9,1.1-1.2,1.8c-0.8,1.1-1.4,2.2-1.9,3.3c-0.1,0.3-0.3,0.5-0.4,0.8
	c-1,2-1.4,3.8-1.4,5.3c0,0.4,0,0.8,0.1,1.1c0.1,0.8,0.3,1.4,0.5,2c0.1,0.3,0.3,0.6,0.4,0.9c0.2,0.3,0.4,0.4,0.5,0.7
	c0.2,0.3,0.4,0.4,0.6,0.6l0.1,0.1c0.4,0.4,0.9,0.7,1.4,1c1.4,0.8,3.3,1.2,5.6,1.5c0.7,0.1,1.4,0.1,2.2,0.1c0.5,0,1,0,1.5-0.1
	c1.1-0.1,2.1-0.2,3.3-0.4c0.6-0.1,1.1-0.2,1.8-0.3c0.4-0.1,0.9-0.2,1.4-0.3c0.4-0.1,0.7-0.1,1.1-0.2c2.2-0.4,4.4-0.9,6.6-1.5
	c4.7-1.3,9.1-3.1,13.5-5.3c3.4-1.8,6.7-3.8,9.8-6.2c1.1-0.9,2.3-1.8,3.3-2.6c1.1-1,2.3-2,3.4-3.1c0.7-0.6,1.4-1.3,2-2
	c1.4-1.4,2.7-2.8,4-4.4c0.8-0.9,1.5-1.8,2.2-2.6c0.9-1.1,1.7-2.2,2.5-3.3c0.5-0.7,1-1.4,1.5-2.1C272,478.1,272.5,477.4,273,476.6z"
	/>
<path fill="#0C2A4A" d="M453.5,508.3c-5.8,2-11.3,3.4-16.8,4.1c-0.7,0.1-1.4,0.2-2.1,0.3c-2,0.2-4,0.3-5.9,0.3c-0.1,0-0.2,0-0.3,0
	c-0.6,0-1.2,0-1.8,0s-1.2,0-1.8-0.1c-0.9,0-1.8-0.1-2.6-0.2c-0.1,0-0.2,0-0.3,0l0,0c-0.2,0-0.4-0.1-0.6-0.1
	c-0.5-0.1-1.1-0.1-1.6-0.2c-0.4-0.1-0.8-0.1-1.2-0.2s-0.8-0.1-1.2-0.2c-0.4-0.1-0.7-0.1-1-0.2c-0.2,0-0.4-0.1-0.5-0.1
	c-0.7-0.1-1.4-0.3-2.1-0.4c-0.4-0.1-0.7-0.2-1.1-0.3c-0.5-0.1-1.1-0.2-1.6-0.4c-0.4-0.1-0.8-0.2-1.1-0.3c-0.5-0.1-1.1-0.3-1.5-0.4
	c-0.2,0-0.4-0.1-0.5-0.1c-0.2-0.1-0.4-0.1-0.6-0.2c-0.3-0.1-0.5-0.2-0.9-0.3c-0.3-0.1-0.5-0.2-0.9-0.3c-0.4-0.1-0.6-0.2-1-0.3
	c-0.9-0.3-1.7-0.5-2.5-0.8c-0.4-0.1-0.8-0.3-1.1-0.4c-0.5-0.2-1.1-0.4-1.5-0.5c-0.4-0.2-0.9-0.3-1.3-0.4c-0.3-0.1-0.4-0.2-0.7-0.3
	c-0.3-0.1-0.5-0.2-0.7-0.3c-0.4-0.2-0.9-0.4-1.3-0.4c-0.4-0.2-1-0.4-1.4-0.5c-0.4-0.2-0.9-0.4-1.3-0.5c-0.5-0.2-1.1-0.4-1.8-0.6
	c-0.4-0.1-0.7-0.3-1.1-0.4c-0.4-0.2-1-0.4-1.4-0.5c-0.2-0.1-0.3-0.1-0.4-0.2c-0.3-0.1-0.5-0.2-0.8-0.3c-0.6-0.3-1.1-0.4-1.8-0.7
	c-0.4-0.2-0.7-0.3-1.1-0.4c-0.6-0.3-1.2-0.5-1.8-0.8c-0.3-0.1-0.5-0.2-0.8-0.4c-1.4-0.6-2.8-1.1-4.2-1.8c-0.2-0.1-0.4-0.2-0.5-0.3
	c-2.3-1-4.7-1.9-7.1-3l-1.1-0.4l0,0l0,0l0.9-0.8c1.2-1.1,2.4-2.2,3.5-3.3c0.3-0.2,0.4-0.4,0.7-0.6c1.7-1.6,3.3-3.1,4.9-4.7
	c0.3-0.3,0.5-0.5,0.8-0.8c0.4-0.4,0.9-0.9,1.3-1.3c0.4-0.4,0.6-0.6,1-1c0.4-0.4,0.9-0.9,1.3-1.3c0.4-0.4,0.7-0.6,1-1
	c0.4-0.4,0.9-0.9,1.2-1.3c0.4-0.4,0.6-0.7,1-1c0.4-0.4,0.8-0.9,1.2-1.2c0.4-0.4,0.6-0.7,1-1c0.4-0.4,0.8-0.9,1.2-1.2
	c0.1-0.1,0.1-0.1,0.2-0.2c0.3-0.3,0.5-0.5,0.7-0.8c0.4-0.4,0.8-0.8,1.1-1.2c0.3-0.4,0.6-0.6,0.9-1c0.4-0.4,0.8-0.8,1.1-1.2
	c0.2-0.2,0.3-0.3,0.4-0.4c0.2-0.2,0.3-0.3,0.4-0.4c0.4-0.4,0.8-0.9,1.2-1.3c0.1-0.1,0.3-0.3,0.4-0.4s0.2-0.3,0.4-0.4
	c0.6-0.7,1.2-1.3,1.8-1.9c0.9-1,1.7-1.8,2.5-2.8l0.1-0.1c0.1-0.1,0.3-0.3,0.4-0.4l0.1-0.1c0.2-0.2,0.4-0.4,0.5-0.6
	c0.2-0.3,0.4-0.4,0.6-0.7c0.1-0.1,0.2-0.3,0.3-0.4c0.1-0.1,0.2-0.3,0.3-0.4c0.1-0.1,0.2-0.2,0.2-0.3c0.3-0.4,0.6-0.6,0.9-1
	c0.2-0.3,0.4-0.4,0.6-0.7c0.4-0.4,0.7-0.8,1.1-1.1c0.2-0.2,0.3-0.4,0.4-0.5c0.1-0.1,0.1-0.1,0.2-0.2c0.4-0.4,0.7-0.8,1-1.1
	c0.2-0.2,0.4-0.4,0.5-0.6c0.2-0.2,0.4-0.4,0.5-0.6c0.2-0.2,0.3-0.4,0.4-0.5c0.1-0.2,0.3-0.3,0.4-0.4l0.1-0.1c0.4-0.4,0.6-0.8,1-1.1
	c0.1-0.1,0.2-0.3,0.4-0.4c0.2-0.2,0.4-0.4,0.5-0.6c0.2-0.2,0.4-0.4,0.5-0.6c0-0.1,0.1-0.1,0.1-0.2c1-1.1,1.8-2.3,2.7-3.3
	c0.3-0.4,0.5-0.6,0.8-1c2.8-3.4,4.6-5.6,4.8-6.1l0.1-0.1c1.4-1.8,2.7-3.5,4-5.3c0.1-0.1,0.2-0.3,0.3-0.4l0,0
	c0.1-0.1,0.2-0.2,0.3-0.4c0.6-0.8,1.1-1.6,1.8-2.4c0.2-0.2,0.3-0.4,0.4-0.5l0.1-0.1c0.4-0.6,1-1.3,1.4-1.9c0.2-0.3,0.4-0.5,0.5-0.8
	c0.4-0.6,0.8-1.1,1.2-1.7c0.3-0.4,0.5-0.7,0.7-1.1c0.2-0.4,0.4-0.6,0.6-1c0.1-0.2,0.2-0.3,0.3-0.4c0.4-0.4,0.6-0.9,1-1.3
	c0.2-0.3,0.4-0.6,0.6-0.9c0.4-0.6,0.8-1.1,1.1-1.8c0.1-0.1,0.2-0.2,0.2-0.4c3.3-4.9,6.2-9.6,8.6-13.9c0.7-1.2,1.3-2.5,2-3.6
	c0.4-0.6,0.6-1.1,0.9-1.8c1.8-3.5,3.3-6.8,4.3-9.8c0.2-0.4,0.4-1,0.5-1.4c0.1-0.3,0.2-0.5,0.3-0.9c0-0.1,0.1-0.3,0.1-0.4
	c0.1-0.4,0.3-0.7,0.4-1.1c0.3-0.9,0.5-1.8,0.7-2.5l0,0l0,0c0-0.1,0.1-0.3,0.1-0.4c0.3-1.1,0.4-2.2,0.6-3.2c0-0.1,0-0.2,0-0.3
	c0.1-0.4,0.1-0.9,0.2-1.3l0,0c0-0.1,0-0.3,0-0.4c0-0.5,0.1-1,0.1-1.5l0,0l0,0c0-0.6,0-1.3-0.1-1.9c-0.1-0.4-0.1-0.9-0.2-1.3
	c-0.8-4.3-3.6-6.4-8.5-6.4c-0.6,0-1.2,0-1.9,0.1c-0.7,0.1-1.4,0.2-2.1,0.3c-2.7,0.5-5.3,1.2-7.7,2.2c-1.9,0.7-3.8,1.6-5.5,2.5
	c-0.4,0.2-0.5,0.4-0.8,0.5c-0.6,0.4-0.7,0.7-0.7,0.9l0,0c0,0.1,0,0.1,0,0.2s0,0.1,0.1,0.2c0.2,0.4,0.5,0.6,0.9,0.9
	c0.1,0,0.1,0.1,0.2,0.1c0.1,0.1,0.3,0.2,0.4,0.3c0.1,0,0.1,0.1,0.1,0.1l0.1,0.1c0.1,0.1,0.2,0.2,0.3,0.3c0.1,0.1,0.2,0.2,0.2,0.2
	l0.1,0.1c0.1,0.1,0.2,0.2,0.2,0.3l0.1,0.1l0.1,0.1c0.1,0.2,0.3,0.3,0.4,0.4l0.1,0.1l0,0l0,0c0,0,0,0.1,0.1,0.1
	c0.1,0.2,0.3,0.4,0.4,0.5c0.1,0.1,0.1,0.2,0.2,0.3c0.1,0.1,0.2,0.3,0.2,0.4c0.1,0.1,0.1,0.3,0.2,0.4l0,0l0,0
	c0.4,0.7,0.6,1.4,0.8,2.1c0.5,1.8,0.8,3.9,0.9,6.2c0,0.4,0,0.7,0,1.1c0,0.3,0,0.5,0,0.9c0,0.6,0,1.3-0.1,1.9c0,0.2,0,0.4-0.1,0.6
	c0,0.4-0.1,0.9-0.1,1.3c0,0.3-0.1,0.5-0.1,0.8c-0.1,0.4-0.1,0.8-0.2,1.1c0,0.3-0.1,0.5-0.1,0.8c0,0.2-0.1,0.4-0.1,0.5
	c0,0.2-0.1,0.4-0.1,0.5c-0.1,0.3-0.1,0.6-0.2,0.9c0,0.2-0.1,0.4-0.1,0.5c0,0.2-0.1,0.4-0.1,0.5c-0.1,0.3-0.1,0.5-0.2,0.8v0.1
	c-0.1,0.4-0.2,0.7-0.3,1.1c-0.1,0.3-0.2,0.6-0.3,0.9c-0.1,0.4-0.2,0.7-0.4,1.1c-0.1,0.3-0.2,0.6-0.3,0.9c-0.1,0.4-0.3,0.7-0.4,1.1
	c-0.1,0.4-0.2,0.6-0.4,1c-0.1,0.4-0.3,0.7-0.4,1.1c-0.1,0.4-0.3,0.6-0.4,1c-0.2,0.4-0.3,0.7-0.4,1.1c-0.2,0.4-0.3,0.6-0.4,1
	s-0.4,0.7-0.5,1.1c-0.2,0.4-0.3,0.6-0.4,1s-0.4,0.7-0.5,1.1c-0.1,0.2-0.2,0.4-0.3,0.5c-0.1,0.2-0.2,0.3-0.3,0.4
	c-0.1,0.2-0.2,0.4-0.4,0.6c-0.1,0.2-0.2,0.4-0.3,0.5c-0.2,0.3-0.4,0.6-0.5,0.9c-0.2,0.4-0.4,0.8-0.7,1.1c-0.2,0.3-0.4,0.6-0.5,0.9
	c-0.2,0.3-0.3,0.4-0.4,0.7c-0.2,0.3-0.4,0.5-0.4,0.8c-0.1,0.2-0.3,0.4-0.4,0.6c-0.7,1.1-1.5,2.3-2.2,3.3c-0.3,0.4-0.5,0.7-0.7,1.1
	l-1.2,1.7l-0.2-2c0-0.2,0-0.4-0.1-0.5c0-0.2,0-0.4-0.1-0.5c0-0.3-0.1-0.6-0.1-0.9c0-0.4-0.1-0.9-0.1-1.3c0-0.4-0.1-0.6-0.1-1
	c-0.1-0.5-0.1-1.1-0.2-1.7c-0.1-0.6-0.1-1.1-0.2-1.7c0-0.1,0-0.1,0-0.2c0-0.2,0-0.3,0-0.4s0-0.3,0-0.4c-0.1-0.7-0.2-1.5-0.3-2.2
	c0-0.3-0.1-0.5-0.1-0.8c-0.1-0.7-0.2-1.4-0.3-2c0-0.3-0.1-0.5-0.1-0.8c0-0.3-0.1-0.6-0.1-0.9c0-0.4-0.1-0.8-0.1-1.1
	c0-0.2-0.1-0.4-0.1-0.6l0,0c-0.1-0.6-0.2-1.2-0.2-1.8c0-0.2-0.1-0.4-0.1-0.6c-0.1-0.5-0.2-1.1-0.2-1.7V403c0-0.1,0-0.3-0.1-0.4
	c-0.1-0.6-0.2-1.1-0.3-1.8c0-0.2-0.1-0.4-0.1-0.5c-0.1-0.4-0.1-0.9-0.2-1.3c0-0.1,0-0.2,0-0.4c0-0.2-0.1-0.4-0.1-0.5
	c-0.1-0.4-0.1-0.8-0.2-1.2c0-0.1,0-0.2,0-0.4c0-0.2,0-0.3-0.1-0.4c0-0.1,0-0.2,0-0.3c-0.1-0.4-0.1-0.8-0.2-1.1c0-0.1,0-0.1,0-0.2
	s0-0.1,0-0.2c0-0.3-0.1-0.4-0.1-0.7c0-0.2-0.1-0.4-0.1-0.5v-0.1c0-0.1,0-0.1,0-0.2c-0.1-0.4-0.2-0.8-0.2-1.2c0-0.1,0-0.2-0.1-0.4
	c-0.1-0.4-0.2-0.7-0.2-1.1c0-0.1,0-0.2-0.1-0.3c-0.1-0.4-0.1-0.6-0.2-1c0-0.1,0-0.2-0.1-0.3c0-0.1,0-0.2-0.1-0.2
	c-0.1-0.3-0.1-0.4-0.2-0.6v-0.1v-0.1c-0.1-0.3-0.1-0.5-0.2-0.7V387c-0.1-0.2-0.1-0.4-0.2-0.6c-0.1-0.2-0.1-0.3-0.2-0.4
	c-0.1-0.3-0.2-0.4-0.3-0.7c0-0.1-0.1-0.2-0.1-0.3c0,0,0-0.1-0.1-0.1c0,0,0-0.1-0.1-0.1l0,0c-0.1-0.2-0.2-0.4-0.3-0.6
	c0-0.1-0.1-0.2-0.1-0.3l0,0c-0.1-0.2-0.2-0.4-0.4-0.6c0-0.1-0.1-0.2-0.1-0.3c-0.1-0.2-0.3-0.4-0.4-0.5c0-0.1-0.1-0.1-0.1-0.2
	c0-0.1-0.1-0.1-0.1-0.1c-0.1-0.2-0.3-0.4-0.4-0.5l0,0c-0.4-0.4-0.8-0.8-1.1-1.1l-0.1-0.1c-0.2-0.1-0.4-0.3-0.5-0.4
	c0,0-0.1,0-0.1-0.1c0,0-0.1,0-0.1-0.1c0,0-0.1-0.1-0.2-0.1c-0.1-0.1-0.3-0.1-0.4-0.2c-0.1,0-0.2-0.1-0.2-0.1
	c-0.2-0.1-0.4-0.2-0.5-0.2c-0.1,0-0.1-0.1-0.2-0.1h-0.1c-0.2-0.1-0.3-0.1-0.4-0.1c-0.1,0-0.3-0.1-0.4-0.1c-0.2,0-0.4-0.1-0.6-0.1
	c-0.1,0-0.2,0-0.3,0c-0.2,0-0.4,0-0.6-0.1c-0.1,0-0.2,0-0.3,0c-0.2,0-0.4,0-0.5,0c-0.3,0-0.4,0-0.7,0c-0.1,0-0.3,0-0.4,0
	c-0.2,0-0.4,0-0.4,0.1c-0.2,0-0.3,0-0.4,0.1c-0.1,0-0.2,0-0.2,0l0,0l0,0c-0.6,0.1-1.3,0.3-2,0.4c-0.4,0.1-0.7,0.2-1.1,0.4
	c-0.7,0.3-1.5,0.5-2.3,0.8c-1.6,0.6-3.3,1.4-5,2.3l0,0c-0.9,0.4-1.8,1-2.7,1.5c-0.4,0.3-1,0.5-1.4,0.8c-1.9,1.1-4,2.5-6.2,3.9
	c4.7,5.5,5.3,11.3,3.9,17.1c0,0.2-0.1,0.3-0.1,0.4c-0.1,0.4-0.3,0.8-0.4,1.2c-0.1,0.4-0.3,0.8-0.4,1.1c-0.2,0.5-0.4,1.1-0.6,1.7
	s-0.4,1.1-0.7,1.7c-0.3,0.5-0.5,1.1-0.8,1.7c-0.4,0.8-0.9,1.7-1.3,2.5l0,0l0,0c-2,3.5-4.4,6.8-6.6,9.7c-0.3,0.4-0.5,0.7-0.7,1l0,0
	l-0.5,0.7c-0.7,0.9-1.5,1.8-2.2,2.5c-0.7,0.8-1.4,1.6-2.1,2.4c-0.2,0.2-0.3,0.4-0.4,0.4c-0.4,0.4-0.6,0.7-1,1
	c-0.2,0.2-0.4,0.4-0.5,0.5c-0.2,0.2-0.4,0.4-0.5,0.4c-1.1,1.1-2.1,1.6-3,1.8c-0.1,0-0.3,0-0.4,0h-0.1l0,0c-0.1,0-0.2,0-0.3,0l0,0
	l0,0c-0.1,0-0.1,0-0.2,0c-0.3-0.1-0.6-0.2-0.9-0.4c-0.1-0.1-0.2-0.2-0.4-0.4l0,0c-0.1-0.1-0.1-0.2-0.2-0.3c0,0,0,0,0-0.1l0,0l0,0
	l0,0c-0.1-0.1-0.1-0.3-0.2-0.4c0,0,0,0,0-0.1s0-0.1-0.1-0.2c0-0.1,0-0.2-0.1-0.2c0,0,0,0,0-0.1s-0.1-0.3-0.1-0.4v-0.1
	c0-0.1,0-0.2,0-0.3c0-0.1,0-0.2,0-0.3c0-0.2,0-0.4,0-0.7c0-0.4,0-0.7,0-1.1c0.1-1.1,0.3-2.5,0.6-3.9c1-4,1.9-7.9,3.1-11.9
	c0.8-2.7,1.6-5.5,2.5-8.2c0.4-1.1,0.7-2.3,1.1-3.4c1.2-3.6,2.3-6.7,3.3-9.3c0.4-0.8,0.6-1.6,1-2.3c0.3-0.5,0.4-1,0.6-1.4
	c0.2-0.4,0.4-0.9,0.6-1.2c0.2-0.4,0.4-0.7,0.5-1c0.2-0.3,0.4-0.6,0.5-0.9c0.4-0.5,0.7-1.1,1.1-1.4l0,0l0,0c-0.3-0.2-0.6-0.3-1-0.4
	c-0.1,0-0.2-0.1-0.4-0.1c0,0,0,0-0.1,0s-0.2-0.1-0.2-0.1c-0.3-0.1-0.4-0.2-0.7-0.2c-0.2-0.1-0.4-0.1-0.6-0.2h-0.1h-0.1
	c-0.4-0.1-1-0.2-1.4-0.3h-0.1l0,0c-0.5-0.1-1.1-0.2-1.6-0.2h-0.1l0,0c-0.5,0-1.1-0.1-1.8-0.1c-0.5,0-1.1,0-1.8,0.1
	c-0.1,0-0.3,0-0.4,0c-0.4,0-0.7,0.1-1.1,0.1c-0.1,0-0.3,0-0.4,0c-0.2,0-0.4,0-0.5,0.1c-0.3,0-0.6,0.1-1,0.2c-0.4,0.1-0.6,0.1-1,0.2
	c-1.2,0.3-2.4,0.5-3.4,0.9c-0.4,0.1-0.7,0.3-1.1,0.4c-2.2,0.9-3.9,2.2-5.1,3.7l-0.3,0.3l-0.3,0.3l-0.6-0.4c-0.2-0.1-0.4-0.3-0.5-0.4
	c-0.1,0-0.1-0.1-0.2-0.1c-0.1-0.1-0.3-0.1-0.4-0.2c-0.1,0-0.2-0.1-0.3-0.1c-0.1,0-0.2-0.1-0.3-0.1h-0.1c-0.1,0-0.2-0.1-0.3-0.1
	c-0.1,0-0.3-0.1-0.4-0.1c-0.3-0.1-0.6-0.2-1-0.2c-0.2,0-0.4-0.1-0.7-0.1c-0.1,0-0.2,0-0.2,0c-0.2,0-0.4,0-0.6-0.1
	c-0.1,0-0.2,0-0.3,0c-0.2,0-0.4,0-0.7,0l0,0c-0.1,0-0.1,0-0.2,0l0,0c-0.3,0-0.4,0-0.7,0c-0.4,0-0.7,0-1.1,0h-0.1c-0.2,0-0.3,0-0.4,0
	c-0.4,0-0.6,0.1-1,0.1c-0.1,0-0.2,0-0.3,0c-0.4,0.1-0.9,0.1-1.4,0.2c-0.1,0-0.3,0-0.4,0.1c-0.2,0-0.4,0.1-0.6,0.1
	c-0.3,0.1-0.6,0.1-0.9,0.2l0,0c-1.3,0.3-2.5,0.5-3.8,0.9c-0.3,0.1-0.6,0.2-0.9,0.3c-1.1,0.4-2.1,0.7-3.1,1.1
	c-0.9,0.4-1.8,0.7-2.5,1.1c-0.7,0.4-1.3,0.6-2,1c-6.7,3.4-12.9,8.6-18.7,15.6c-3.2,3.8-5.8,7.6-7.9,11.6c-0.2,0.4-0.4,0.7-0.6,1.1
	c-0.4,0.9-0.9,1.7-1.2,2.5c-0.4,0.9-0.7,1.7-1.1,2.5c-2.1,5.5-3.2,10.9-3.2,16.4c0,1.7,0.1,3.2,0.4,4.6c0,0.1,0,0.2,0,0.3
	c0.1,0.6,0.2,1.1,0.4,1.8c0,0.1,0.1,0.3,0.1,0.4c0.6,2.4,1.5,4.2,2.7,5.6c0.4,0.4,0.9,0.9,1.4,1.3c0.3,0.3,0.6,0.4,1,0.6
	c0.1,0.1,0.2,0.1,0.3,0.2c0.3,0.2,0.6,0.3,0.9,0.4c0.1,0,0.1,0.1,0.2,0.1c0.4,0.2,0.8,0.3,1.1,0.4c0.1,0,0.1,0,0.2,0l0,0
	c0.4,0.1,0.8,0.2,1.1,0.3c0.1,0,0.1,0,0.2,0c0.4,0.1,0.9,0.1,1.3,0.1c0.2,0,0.3,0,0.4,0c0.4,0,0.8,0,1.2,0h0.1c0,0,0,0,0.1,0
	c0.4,0,0.8-0.1,1.1-0.1c0.2,0,0.3,0,0.4,0s0.2,0,0.3,0c0.1,0,0.3,0,0.4-0.1c0.4-0.1,0.9-0.1,1.3-0.2l0,0c2.5-0.4,4.9-1.2,7.4-2.3
	c0.4-0.2,1-0.4,1.4-0.7c5.5-2.7,10.9-7.1,16.1-13l0.9-1l0.4,1.2c0.3,0.6,0.5,1.2,0.8,1.8c0.4,0.7,0.8,1.4,1.2,2
	c0.5,0.7,1.1,1.2,1.6,1.8c0.1,0.1,0.2,0.2,0.2,0.2s0,0,0.1,0.1c0,0,0,0,0.1,0.1c0.2,0.2,0.4,0.3,0.5,0.4c0.2,0.1,0.3,0.2,0.4,0.3
	c0.1,0.1,0.2,0.1,0.3,0.2c0.2,0.1,0.4,0.2,0.5,0.3c0.1,0.1,0.3,0.2,0.4,0.2c0.1,0,0.2,0.1,0.3,0.1c0.4,0.2,0.8,0.4,1.2,0.4l0,0
	c0,0,0,0,0.1,0c0.3,0.1,0.4,0.1,0.7,0.2c0.2,0,0.4,0.1,0.5,0.2c0.1,0,0.2,0,0.3,0l0,0c0.4,0.1,0.9,0.2,1.4,0.2c0.2,0,0.4,0,0.4,0
	c0.4,0,0.7,0,1.1,0l0,0c0,0,0,0,0.1,0c0.5,0,1.1-0.1,1.7-0.1h0.1c0.5-0.1,1.1-0.2,1.8-0.3l0,0c2.1-0.4,4.2-1.1,6.3-1.8
	c1.1-0.4,2.1-1,3.2-1.5c0.3-0.2,0.6-0.4,0.9-0.5c2.7-1.6,5.5-3.6,8.1-6c0.4-0.4,0.8-0.7,1.1-1.1c0.4-0.4,0.8-0.8,1.2-1.2l0,0l0,0
	l0,0l0.1-0.1c0.4-0.4,0.8-0.8,1.2-1.1c0.4-0.4,0.8-0.8,1.1-1.2l0,0c1.7-1.8,3.3-3.6,4.8-5.7c0.5-0.7,1.1-1.4,1.6-2.1
	c0.8-1.1,1.6-2.3,2.4-3.4c2.4-3.6,4.6-7.6,6.8-12l0.9-1.8l0,0l0,0l0,0l0.5,2c0.3,0.9,0.4,1.8,0.6,2.6l0,0v0.1c0.1,0.4,0.2,0.7,0.3,1
	c0.1,0.5,0.3,1,0.4,1.5c0.1,0.2,0.1,0.4,0.2,0.6c0.2,0.8,0.4,1.6,0.5,2.4c0,0,0,0,0,0.1c0,0.2,0.1,0.3,0.1,0.4
	c0.1,0.4,0.2,0.9,0.3,1.4c0,0.2,0.1,0.4,0.1,0.5c0.1,0.2,0.1,0.4,0.2,0.6c0.2,0.7,0.3,1.4,0.4,2c0,0.2,0.1,0.4,0.1,0.6
	c0.1,0.5,0.2,1.1,0.4,1.6c0,0.2,0.1,0.4,0.1,0.5c0.1,0.6,0.3,1.2,0.4,1.8v0.1c0,0.2,0.1,0.4,0.1,0.5c0,0.1,0,0.3,0.1,0.4
	c0.1,0.4,0.2,0.9,0.3,1.3c0,0.1,0,0.1,0,0.2c0,0.1,0,0.1,0,0.2c0.1,0.5,0.2,1,0.2,1.4c0,0.1,0,0.2,0,0.3c0,0.1,0,0.1,0,0.2l0,0
	c0.1,0.5,0.2,1,0.2,1.5c0,0.1,0,0.2,0,0.4l0,0v0.1c0.1,0.4,0.1,0.8,0.1,1.1c0,0.1,0,0.2,0,0.3c0,0.3,0,0.4,0.1,0.7
	c0,0.2,0,0.4,0.1,0.7c0,0.1,0,0.2,0,0.3c0,0.4,0,0.9,0.1,1.2l0,0c0,0.3,0,0.5,0,0.9c0,0.2,0,0.4,0,0.5l0,0l0,0l0,0
	c-0.1,0.5-0.1,1-0.2,1.4l0,0c-0.1,0.3-0.1,0.4-0.2,0.7c-0.1,0.3-0.1,0.4-0.2,0.7l0,0l0,0c-0.1,0.2-0.2,0.4-0.3,0.5
	c-0.1,0.2-0.2,0.4-0.3,0.6c0,0.1-0.1,0.1-0.1,0.2c0,0,0,0,0,0.1c-0.2,0.4-0.4,0.6-0.5,0.9l0,0l-0.1,0.1c-0.2,0.3-0.4,0.4-0.5,0.7
	c0,0,0,0,0,0.1c-0.5,0.6-1.1,1.3-1.8,2l0,0c-0.5,0.5-1,1.1-1.5,1.8c-0.1,0.1-0.1,0.1-0.2,0.2s-0.1,0.1-0.2,0.2l0,0
	c0,0.1-0.1,0.1-0.1,0.2c-0.3,0.3-0.5,0.5-0.7,0.9c-0.3,0.3-0.4,0.5-0.7,0.8c0,0,0,0,0,0.1c0,0,0,0-0.1,0.1c-0.4,0.4-0.8,1-1.2,1.4
	c-0.2,0.3-0.4,0.5-0.6,0.7c-0.4,0.4-0.8,0.9-1.1,1.3c-0.3,0.3-0.5,0.6-0.8,0.9c-0.4,0.4-0.8,0.9-1.1,1.3c-0.3,0.4-0.6,0.6-0.9,1
	c-0.4,0.4-0.8,0.9-1.1,1.3c-0.4,0.4-0.6,0.7-1,1.1c-0.4,0.4-0.8,0.9-1.1,1.3c-0.1,0.1-0.2,0.2-0.3,0.3c-0.3,0.3-0.5,0.5-0.8,0.8
	c-0.2,0.2-0.4,0.4-0.5,0.5c-0.3,0.3-0.4,0.4-0.7,0.7c-0.4,0.4-0.8,0.8-1.1,1.2c-0.6,0.7-1.3,1.4-2,2.1c-0.4,0.4-0.9,0.9-1.3,1.3
	c-0.4,0.4-0.8,0.8-1.1,1.1c-0.4,0.4-0.8,0.8-1.2,1.2c-0.4,0.4-0.8,0.8-1.1,1.1c-0.4,0.4-0.8,0.8-1.2,1.2c-0.2,0.2-0.4,0.4-0.5,0.5
	c-0.3,0.3-0.4,0.4-0.7,0.7c-0.4,0.4-0.8,0.8-1.2,1.2c-0.4,0.4-0.8,0.8-1.2,1.1c-0.4,0.4-0.8,0.8-1.2,1.1l-0.1,0.1l0,0
	c-0.4,0.4-0.8,0.7-1.1,1.1c-0.4,0.4-0.7,0.6-1.1,1c-0.1,0.1-0.3,0.2-0.4,0.4c-0.1,0.1-0.2,0.2-0.3,0.3c-0.3,0.3-0.5,0.5-0.9,0.8
	c-0.5,0.5-1.1,1.1-1.8,1.5c-0.3,0.3-0.5,0.4-0.7,0.7l-0.2,0.1l-0.2,0.2l0,0l-0.3-0.1l-0.2-0.1c-3.3-1.3-6.4-2.6-9.4-3.8
	c-1-0.4-2-0.8-3-1.1c-0.2-0.1-0.3-0.1-0.4-0.2c-0.4-0.2-0.7-0.3-1.1-0.4c-0.7-0.3-1.3-0.5-2-0.7c-0.1,0-0.1,0-0.2-0.1
	c-0.1,0-0.1,0-0.2-0.1c-0.6-0.3-1.3-0.4-1.9-0.7c-0.1,0-0.3-0.1-0.4-0.1c-0.4-0.1-0.6-0.2-1-0.4c-0.4-0.1-0.6-0.2-1-0.4
	c-0.1,0-0.3-0.1-0.4-0.1c-0.6-0.2-1.3-0.4-1.9-0.6c-0.4-0.1-0.8-0.3-1.1-0.4c-0.7-0.2-1.5-0.4-2.2-0.6c-0.4-0.1-0.6-0.2-1-0.3
	c-0.4-0.1-1-0.3-1.4-0.4c-0.1,0-0.3-0.1-0.4-0.1c-0.3-0.1-0.6-0.2-0.9-0.2c-0.4-0.1-0.6-0.1-1-0.2c-0.5-0.1-1-0.2-1.5-0.3
	c-0.3-0.1-0.5-0.1-0.7-0.1c-0.3-0.1-0.6-0.1-0.9-0.2c-0.3-0.1-0.6-0.1-0.9-0.2c-0.2,0-0.4-0.1-0.5-0.1c-0.1,0-0.3,0-0.4-0.1
	c-0.4-0.1-0.9-0.1-1.3-0.2c-0.2,0-0.3,0-0.4-0.1c-0.3,0-0.4-0.1-0.7-0.1c-0.6-0.1-1.2-0.1-1.8-0.2c-0.2,0-0.4,0-0.5-0.1
	c-0.3,0-0.5,0-0.8-0.1c-0.5,0-1.1-0.1-1.7-0.1c-0.3,0-0.5,0-0.9,0c-0.7,0-1.3,0-2,0c-0.1,0-0.2,0-0.3,0c-0.1,0-0.2,0-0.4,0
	c-0.5,0-1.1,0-1.7,0c-0.4,0-0.7,0-1.1,0.1h-0.1c-0.2,0-0.3,0-0.4,0c-0.7,0.1-1.5,0.1-2.2,0.2c-0.4,0-0.8,0.1-1.2,0.2
	c-0.5,0.1-1.1,0.2-1.6,0.3c-0.4,0.1-0.7,0.1-1.1,0.2c-0.4,0.1-0.8,0.2-1.1,0.2c-0.5,0.1-1.1,0.3-1.7,0.4c-0.3,0.1-0.5,0.2-0.8,0.2
	c-0.5,0.2-1.1,0.3-1.6,0.4c-0.2,0.1-0.4,0.1-0.5,0.2s-0.4,0.1-0.5,0.2c-0.1,0-0.3,0.1-0.4,0.1c-2,0.7-4,1.5-5.9,2.5
	c-0.6,0.4-1.2,0.6-1.8,1c-0.4,0.2-0.7,0.4-1.1,0.7c-0.4,0.3-0.7,0.4-1.1,0.7c-0.2,0.2-0.4,0.3-0.6,0.4c-0.4,0.3-0.8,0.5-1.1,0.8
	c-0.2,0.1-0.4,0.3-0.5,0.4l0,0c0,0,0,0-0.1,0.1c-2.8,2.4-4.8,4.8-6.2,6.9c-0.4,0.7-0.8,1.3-1.1,1.9c-0.2,0.4-0.4,0.7-0.5,1.1
	c-0.1,0.2-0.1,0.3-0.2,0.4c-0.1,0.2-0.1,0.3-0.2,0.4c-0.2,0.3-0.3,0.6-0.4,1c0,0.1-0.1,0.2-0.1,0.3c-0.4,1.2-0.8,2.4-1.1,3.6
	c-1.4,6.9,0.4,14,5.3,19.2c0.5,0.5,1.1,1.1,1.7,1.7c0.6,0.5,1.3,1.1,2.1,1.7c0.4,0.3,0.8,0.5,1.2,0.8c0.9,0.5,1.8,1.1,2.7,1.5
	c1,0.5,2.1,1,3.3,1.3c4.1,1.5,9.2,2.5,15.7,2.4c14.2-0.1,31.8-8.4,52.4-24.6l0.1-0.1l0.3-0.2l0.4,0.2c0.4,0.1,0.6,0.3,1,0.4
	c1.4,0.5,2.8,1.1,4.2,1.7c0.7,0.3,1.3,0.5,2,0.8c1.9,0.8,3.9,1.5,5.9,2.2c0.2,0.1,0.4,0.2,0.6,0.3c0.8,0.3,1.6,0.6,2.5,0.9
	c0.2,0.1,0.3,0.1,0.4,0.2c0.2,0.1,0.4,0.2,0.6,0.3c0.7,0.3,1.5,0.5,2.2,0.8c0.4,0.2,0.8,0.3,1.2,0.4c0.7,0.3,1.4,0.4,2.1,0.7
	c0.4,0.2,0.9,0.4,1.3,0.4c0.6,0.2,1.3,0.4,1.9,0.6h0.1l0,0c0.4,0.2,1,0.4,1.4,0.4c0.6,0.2,1.3,0.4,1.9,0.6c0.5,0.2,1,0.3,1.5,0.4
	c0.5,0.2,1.1,0.4,1.6,0.4c0.1,0,0.3,0.1,0.4,0.1c0.3,0.1,0.5,0.2,0.7,0.2c0.3,0.1,0.5,0.2,0.7,0.2c0.2,0.1,0.4,0.1,0.5,0.2
	c0.4,0.1,0.9,0.3,1.3,0.4c0.2,0.1,0.4,0.1,0.6,0.2c0.3,0.1,0.6,0.2,0.9,0.3c0.6,0.2,1.2,0.4,1.9,0.5c0.2,0.1,0.4,0.1,0.5,0.2
	c0.4,0.1,0.6,0.2,1,0.3c0.6,0.2,1.2,0.4,1.8,0.4c0.5,0.1,1.1,0.3,1.5,0.4c0.6,0.2,1.2,0.3,1.8,0.4c0.5,0.1,1.1,0.2,1.6,0.4
	c0.6,0.1,1.2,0.3,1.8,0.4c0.5,0.1,1.1,0.2,1.6,0.3c0.6,0.1,1.2,0.3,1.8,0.4c0.2,0,0.4,0.1,0.6,0.1l0,0c0.3,0,0.6,0.1,0.9,0.1
	c0.6,0.1,1.2,0.2,1.8,0.3c1.3,0.2,2.6,0.4,4,0.4c0.6,0.1,1.2,0.1,1.8,0.2c2.8,0.3,5.6,0.4,8.3,0.4c0.2,0,0.4,0,0.5,0
	c0.9,0,1.7,0,2.5-0.1c0.1,0,0.2,0,0.2,0c0.7,0,1.5-0.1,2.2-0.2c0.4,0,0.6-0.1,0.9-0.1c0.5-0.1,1.1-0.1,1.7-0.2c0.1,0,0.2,0,0.2,0
	c0.3,0,0.4-0.1,0.7-0.1c0.6-0.1,1.1-0.2,1.8-0.3c0.6-0.1,1.1-0.2,1.8-0.4c2.5-0.5,4.5-1.1,6.2-1.8c0.3-0.1,0.4-0.2,0.7-0.4
	C456.1,516.2,453.5,508.3,453.5,508.3L453.5,508.3z M343.2,401.3c0,0.2,0,0.4-0.1,0.6c-0.1,1-0.4,2.2-0.7,3.6
	c-0.1,0.3-0.2,0.6-0.3,0.9c-0.3,0.9-0.5,1.8-0.8,2.7c-0.1,0.4-0.2,0.6-0.4,1c-1.3,4-3.3,9.1-5.8,15.2c-3.5,8.4-6.5,14.2-9.1,17.7
	c-0.6,0.8-1.1,1.5-1.7,2c-0.3,0.3-0.5,0.4-0.8,0.7c-0.5,0.4-1,0.7-1.4,0.9c-0.3,0.1-0.4,0.2-0.7,0.2c-0.2,0-0.4,0.1-0.4,0.1l0,0
	c-0.5,0-1.1-0.2-1.6-0.7c-0.1-0.1-0.2-0.3-0.4-0.4c-0.1-0.2-0.2-0.4-0.3-0.6c-0.2-0.4-0.2-1.1-0.3-1.8c0-3,0.7-6.9,2.1-11.8
	c0.2-0.7,0.4-1.5,0.7-2.2c1.1-3.3,2.3-6.8,3.9-10.7c2.9-7.1,5.6-12.2,8.3-15.6c0.3-0.4,0.6-0.7,0.9-1.1c0.8-0.9,1.5-1.5,2.3-2
	c0.1-0.1,0.2-0.2,0.4-0.3c0.9-0.5,1.7-0.9,2.5-1.1c0.4-0.1,0.7-0.1,1-0.1c1.5,0,2.5,0.9,2.5,2.3C343.2,401,343.2,401.2,343.2,401.3z
	 M342.3,500.8L342.3,500.8L342.3,500.8l-1.2,0.9c-0.3,0.2-0.4,0.4-0.7,0.4c-1.1,0.8-2.4,1.6-3.8,2.5c-3.6,2.3-7.1,4.1-10.5,5.5
	c-1.1,0.4-2.2,0.9-3.3,1.3c-2.6,1-5.3,1.6-7.7,1.9c-1.5,0.2-2.9,0.4-4.3,0.4c-1.3,0-2.6-0.1-3.9-0.2c-0.4-0.1-0.9-0.1-1.3-0.2
	c-1.9-0.3-3.7-0.8-5.1-1.5c-1.2-0.6-2.2-1.2-2.9-2.1c-0.4-0.4-0.6-0.8-0.9-1.2c-0.5-1.1-0.8-2.2-0.6-3.4c0-0.2,0.1-0.4,0.1-0.4v-0.1
	l0,0l0,0l0,0l0,0c0-0.1,0-0.1,0.1-0.2c0.1-0.2,0.1-0.4,0.2-0.6l0,0v-0.1v-0.1v-0.1c0.1-0.2,0.2-0.4,0.3-0.5c0-0.1,0.1-0.2,0.1-0.2
	l0,0c0,0,0-0.1,0.1-0.1c0.2-0.3,0.3-0.5,0.4-0.8c0.1-0.1,0.1-0.2,0.2-0.3c0.2-0.2,0.3-0.4,0.4-0.6c0.1-0.1,0.2-0.2,0.3-0.3
	c0.2-0.2,0.4-0.4,0.5-0.5c0.1-0.1,0.2-0.2,0.4-0.4c0.2-0.2,0.3-0.3,0.4-0.4l0.1-0.1c0.1-0.1,0.3-0.2,0.4-0.3
	c0.2-0.2,0.4-0.4,0.6-0.5c0.1-0.1,0.3-0.2,0.4-0.3c0.3-0.2,0.5-0.4,0.8-0.5h0.1c0.1-0.1,0.2-0.1,0.3-0.2c0.3-0.1,0.4-0.3,0.7-0.4
	c0.2-0.1,0.4-0.2,0.5-0.3h0.1c0,0,0.1,0,0.1-0.1c0.4-0.2,0.8-0.4,1.1-0.5c0.2-0.1,0.4-0.1,0.5-0.2c0.1,0,0.3-0.1,0.4-0.1
	c0.2-0.1,0.4-0.2,0.6-0.2c0.2-0.1,0.4-0.1,0.5-0.2h0.1c0.3-0.1,0.6-0.2,0.9-0.3c0.3-0.1,0.4-0.1,0.7-0.2c0.4-0.1,0.6-0.2,1-0.2
	c0.3-0.1,0.4-0.1,0.7-0.2c0.4-0.1,0.7-0.1,1.1-0.2c0.3,0,0.4-0.1,0.7-0.1c0.4,0,0.6-0.1,1-0.1c0.1,0,0.2,0,0.3,0c0.1,0,0.2,0,0.3,0
	c0.1,0,0.3,0,0.4,0c0.6,0,1.2-0.1,1.8-0.1h0.1l0,0c0.3,0,0.4,0,0.7,0c0.2,0,0.4,0,0.6,0l0,0l0,0c0.7,0,1.4,0.1,2.1,0.1
	c0.1,0,0.2,0,0.3,0c0.7,0.1,1.4,0.2,2.1,0.3c0.1,0,0.2,0,0.3,0l0,0c0.7,0.1,1.4,0.3,2.1,0.4c2.9,0.6,6.2,1.5,10.5,3
	c1.1,0.4,2.4,0.8,3.6,1.2c0.9,0.3,1.8,0.6,2.6,1l0.4,0.1L342.3,500.8L342.3,500.8L342.3,500.8z"/>
</svg>
