<?xml version="1.0" encoding="utf-8"?>
<!-- Generator: Adobe Illustrator 18.1.1, SVG Export Plug-In . SVG Version: 6.00 Build 0)  -->
<svg version="1.1" id="Layer_1" xmlns="http://www.w3.org/2000/svg" xmlns:xlink="http://www.w3.org/1999/xlink" x="0px" y="0px"
	 viewBox="0 0 483.2 117.7" enable-background="new 0 0 483.2 117.7" xml:space="preserve">
<g>
	<path d="M25.4,26.2c-9.8,9.8-9.8,25.6,0,35.4l37.9,37.9l35.4-35.4L60.8,26.2C51,16.4,35.2,16.4,25.4,26.2z"/>
	<path d="M101.3,26.2c-9.8-9.8-25.6-9.8-35.4,0L28,64.1l35.4,35.4l37.9-37.9C111,51.8,111,35.9,101.3,26.2z"/>
</g>
<path fill="#010101" d="M340.8,38.7v-3.6H335v3.6h-23.8v-3.6h-5.8v3.6h-11.8v44.7h58.8V38.7H340.8z M305.4,44.7v2.5h5.8v-2.5H335
	v2.5h5.8v-2.5h5.6v13.5h-46.9V44.7H305.4z"/>
<path fill="#010101" d="M222.8,31.6l-6.1,6.3l-24.3,24.3l-6.9-6.9l-6.1-6.3l-12.4,12.4l6.3,6.1l13.1,13.1l6.1,6.3l6.1-6.3L229,50
	l6.3-6.1L222.8,31.6z"/>
<path fill="#010101" d="M466.4,55.7c0-4.3-2.3-5.1-5.1-5.1s-5.1,2.3-5.1,5.1v19.9h-2V20.5c0-2.8-2.3-5.1-5.1-5.1s-5.1,2.3-5.1,5.1
	v39.3h-2V14.4c0-2.8-2.3-5.1-5.1-5.1c-2.8,0-5.1,2.3-5.1,5.1v45.4h-2V20.5c0-2.8-2.3-5.1-5.1-5.1s-5.1,2.3-5.1,5.1v42.3h-2v-24
	c0-2.8-2.3-5.1-5.1-5.1c-2.8,0-5.1,2.3-5.1,6.6v42.3c0,13.3,13.2,26.5,29.6,26.5c16.3,0,29.6-13.2,29.6-29.6l0,0L466.4,55.7z"/>
</svg>
